<?xml version="1.0" standalone="no"?>
<!DOCTYPE svg PUBLIC "-//W3C//DTD SVG 1.1//EN" "http://www.w3.org/Graphics/SVG/1.1/DTD/svg11.dtd" >
<svg xmlns="http://www.w3.org/2000/svg">
<defs>
  <font id="qiusicons" horiz-adv-x="2000">
    <font-face font-family="qiusicons"
      units-per-em="2000" ascent="2000"
      descent="0" />
    <missing-glyph horiz-adv-x="0" />
    <glyph glyph-name="align-center"
      unicode="&#xF101;"
      horiz-adv-x="2000" d="M1416.6666666666665 1104.1666666666667H583.3333333333333A62.5 62.5 0 0 0 583.3333333333333 1229.1666666666667H1416.6666666666665A62.5 62.5 0 0 0 1416.6666666666665 1104.1666666666667zM1666.6666666666665 1437.5H333.3333333333333A62.5 62.5 0 0 0 333.3333333333333 1562.5H1666.6666666666665A62.5 62.5 0 0 0 1666.6666666666665 1437.5zM1666.6666666666665 770.8333333333335H333.3333333333333A62.5 62.5 0 0 0 333.3333333333333 895.8333333333335H1666.6666666666665A62.5 62.5 0 0 0 1666.6666666666665 770.8333333333335zM1416.6666666666665 437.5H583.3333333333333A62.5 62.5 0 0 0 583.3333333333333 562.5H1416.6666666666665A62.5 62.5 0 0 0 1416.6666666666665 437.5z" />
    <glyph glyph-name="align-justify"
      unicode="&#xF102;"
      horiz-adv-x="2000" d="M1666.6666666666665 1104.1666666666667H333.3333333333333A62.5 62.5 0 0 0 333.3333333333333 1229.1666666666667H1666.6666666666665A62.5 62.5 0 0 0 1666.6666666666665 1104.1666666666667zM1666.6666666666665 1437.5H333.3333333333333A62.5 62.5 0 0 0 333.3333333333333 1562.5H1666.6666666666665A62.5 62.5 0 0 0 1666.6666666666665 1437.5zM1666.6666666666665 770.8333333333335H333.3333333333333A62.5 62.5 0 0 0 333.3333333333333 895.8333333333335H1666.6666666666665A62.5 62.5 0 0 0 1666.6666666666665 770.8333333333335zM1666.6666666666665 437.5H333.3333333333333A62.5 62.5 0 0 0 333.3333333333333 562.5H1666.6666666666665A62.5 62.5 0 0 0 1666.6666666666665 437.5z" />
    <glyph glyph-name="align-left"
      unicode="&#xF103;"
      horiz-adv-x="2000" d="M1160.8333333333333 1083.3333333333335H327.5A62.5 62.5 0 1 0 327.5 1208.3333333333335H1160.8333333333333A62.5 62.5 0 0 0 1160.8333333333333 1083.3333333333335zM1672.5 1416.6666666666667H339.1666666666667A62.5 62.5 0 0 0 339.1666666666667 1541.6666666666667H1672.5A62.5 62.5 0 0 0 1672.5 1416.6666666666667zM1672.5 750H339.1666666666667A62.5 62.5 0 0 0 339.1666666666667 875H1672.5A62.5 62.5 0 0 0 1672.5 750zM1160.8333333333333 416.6666666666668H327.5A62.5 62.5 0 1 0 327.5 541.6666666666667H1160.8333333333333A62.5 62.5 0 0 0 1160.8333333333333 416.6666666666668z" />
    <glyph glyph-name="align-right"
      unicode="&#xF104;"
      horiz-adv-x="2000" d="M1666.6666666666665 1104.1666666666667H833.3333333333333A62.5 62.5 0 0 0 833.3333333333333 1229.1666666666667H1666.6666666666665A62.5 62.5 0 0 0 1666.6666666666665 1104.1666666666667zM1672.5 1437.5H339.1666666666667A62.5 62.5 0 0 0 339.1666666666667 1562.5H1672.5A62.5 62.5 0 0 0 1672.5 1437.5zM1672.5 770.8333333333335H339.1666666666667A62.5 62.5 0 0 0 339.1666666666667 895.8333333333335H1672.5A62.5 62.5 0 0 0 1672.5 770.8333333333335zM1666.6666666666665 437.5H833.3333333333333A62.5 62.5 0 0 0 833.3333333333333 562.5H1666.6666666666665A62.5 62.5 0 0 0 1666.6666666666665 437.5z" />
    <glyph glyph-name="android"
      unicode="&#xF105;"
      horiz-adv-x="2000" d="M1504.9999999999998 1222.5A78.3333333333333 78.3333333333333 0 0 1 1426.6666666666663 1144.1666666666667V789.1666666666667A78.3333333333333 78.3333333333333 0 0 1 1583.333333333333 789.1666666666667V1144.1666666666667A78.3333333333333 78.3333333333333 0 0 1 1504.9999999999998 1222.5zM495 1222.5A78.3333333333333 78.3333333333333 0 0 1 416.6666666666667 1144.1666666666667V789.1666666666667A78.3333333333333 78.3333333333333 0 0 1 573.3333333333333 789.1666666666667V1144.1666666666667A78.3333333333333 78.3333333333333 0 0 1 495 1222.5zM629.9999999999999 1222.5V689.1666666666667A89.1666666666667 89.1666666666667 0 0 1 719.1666666666667 600H775.8333333333334V410.8333333333335A78.3333333333333 78.3333333333333 0 0 1 932.5 410.8333333333335H932.5V600H1067.5000000000002V410.8333333333335A78.3333333333333 78.3333333333333 0 0 1 1224.1666666666667 410.8333333333335H1224.1666666666667V600H1280.8333333333333A89.1666666666667 89.1666666666667 0 0 1 1370 689.1666666666667V1222.5zM798.3333333333333 1410.8333333333335A33.3333333333333 33.3333333333333 0 0 1 865 1410.8333333333335A33.3333333333333 33.3333333333333 0 0 1 798.3333333333333 1410.8333333333335M1134.9999999999998 1410.8333333333335A33.3333333333333 33.3333333333333 0 0 1 1201.6666666666665 1410.8333333333335A33.3333333333333 33.3333333333333 0 0 1 1134.9999999999998 1410.8333333333335M1360 1333.3333333333335A344.1666666666667 344.1666666666667 0 0 1 1207.5 1530L1195 1537.5L1181.6666666666665 1544.1666666666665L1196.6666666666665 1570L1240.8333333333333 1653.3333333333333A11.6666666666667 11.6666666666667 0 0 1 1236.6666666666665 1666.6666666666667H1236.6666666666665L1230.8333333333333 1666.6666666666667A14.1666666666667 14.1666666666667 0 0 1 1219.9999999999998 1660.8333333333333L1175 1583.3333333333335L1160.8333333333333 1557.5L1147.5 1563.3333333333335L1133.3333333333333 1568.3333333333335A406.6666666666667 406.6666666666667 0 0 1 866.6666666666665 1568.3333333333335L853.3333333333331 1563.3333333333335L839.1666666666665 1557.5L825 1583.3333333333335L779.9999999999999 1666.6666666666667A11.6666666666667 11.6666666666667 0 0 1 759.1666666666666 1655L803.3333333333331 1571.6666666666667L818.3333333333331 1545.8333333333335L804.9999999999998 1539.1666666666667L792.4999999999998 1531.6666666666667A339.1666666666667 339.1666666666667 0 0 1 640.8333333333334 1333.3333333333335A259.1666666666667 259.1666666666667 0 0 1 630 1266.6666666666665H1370A300 300 0 0 1 1360 1333.3333333333335zM833.3333333333333 1377.5A33.3333333333333 33.3333333333333 0 1 0 866.6666666666666 1410.8333333333335A33.3333333333333 33.3333333333333 0 0 0 833.3333333333333 1377.5zM1166.6666666666665 1377.5A33.3333333333333 33.3333333333333 0 1 0 1200 1410.8333333333335A33.3333333333333 33.3333333333333 0 0 0 1166.6666666666665 1377.5z" />
    <glyph glyph-name="angle-double-down"
      unicode="&#xF106;"
      horiz-adv-x="2000" d="M1000 562.5A61.6666666666667 61.6666666666667 0 0 0 955.8333333333334 580.8333333333333L666.6666666666666 872.5000000000002A62.5 62.5 0 0 0 750 960.8333333333331L1000 710.8333333333333L1250 960.8333333333331A62.5 62.5 0 0 0 1333.3333333333333 872.5000000000002L1044.1666666666665 583.3333333333335A61.6666666666667 61.6666666666667 0 0 0 1000 562.5zM1000 1020.8333333333334A61.6666666666667 61.6666666666667 0 0 0 955.8333333333334 1039.1666666666667L666.6666666666666 1333.3333333333335A62.5 62.5 0 0 0 750 1416.6666666666667L1000 1166.6666666666667L1250 1416.6666666666667A62.5 62.5 0 0 0 1333.3333333333333 1333.3333333333335L1041.6666666666665 1041.6666666666667A61.6666666666667 61.6666666666667 0 0 0 1000 1020.8333333333334z" />
    <glyph glyph-name="angle-double-left"
      unicode="&#xF107;"
      horiz-adv-x="2000" d="M916.6666666666666 645.8333333333335A61.6666666666667 61.6666666666667 0 0 0 872.5 664.1666666666667L583.3333333333333 955.8333333333334A62.5 62.5 0 0 0 583.3333333333333 1044.166666666667L872.5 1333.3333333333335A62.5 62.5 0 0 0 960.8333333333331 1250L710.8333333333333 1000L960.8333333333331 750A62.5 62.5 0 0 0 960.8333333333331 661.6666666666667A61.6666666666667 61.6666666666667 0 0 0 916.6666666666666 645.8333333333335zM1375 645.8333333333335A61.6666666666667 61.6666666666667 0 0 0 1333.3333333333333 666.6666666666667L1041.6666666666665 958.3333333333334A62.5 62.5 0 0 0 1041.6666666666665 1046.6666666666667L1333.3333333333333 1333.3333333333335A62.5 62.5 0 0 0 1416.6666666666665 1250L1166.6666666666665 1000L1416.6666666666665 750A62.5 62.5 0 0 0 1416.6666666666665 666.6666666666667A61.6666666666667 61.6666666666667 0 0 0 1375 645.8333333333335z" />
    <glyph glyph-name="angle-double-right"
      unicode="&#xF108;"
      horiz-adv-x="2000" d="M1083.3333333333333 645.8333333333335A61.6666666666667 61.6666666666667 0 0 0 1039.1666666666667 664.1666666666667A62.5 62.5 0 0 0 1039.1666666666667 752.5L1289.1666666666667 1002.5L1039.1666666666667 1252.5A62.5 62.5 0 0 0 1127.4999999999998 1333.3333333333335L1419.1666666666667 1041.6666666666667A62.5 62.5 0 0 0 1419.1666666666667 953.3333333333331L1127.4999999999998 666.6666666666667A61.6666666666667 61.6666666666667 0 0 0 1083.3333333333333 645.8333333333335zM625 645.8333333333335A61.6666666666667 61.6666666666667 0 0 0 583.3333333333333 666.6666666666667A62.5 62.5 0 0 0 583.3333333333333 750L833.3333333333333 1000L583.3333333333333 1250A62.5 62.5 0 0 0 666.6666666666666 1333.3333333333335L958.3333333333331 1041.6666666666667A62.5 62.5 0 0 0 958.3333333333331 953.3333333333331L666.6666666666666 666.6666666666667A61.6666666666667 61.6666666666667 0 0 0 625 645.8333333333335z" />
    <glyph glyph-name="angle-double-up"
      unicode="&#xF109;"
      horiz-adv-x="2000" d="M1291.6666666666665 1020.8333333333334A61.6666666666667 61.6666666666667 0 0 0 1247.5 1039.1666666666667L997.5 1289.1666666666667L747.5 1039.1666666666667A62.5 62.5 0 0 0 666.6666666666666 1127.5L955.8333333333334 1416.6666666666667A62.5 62.5 0 0 0 1044.1666666666667 1416.6666666666667L1335.8333333333333 1125A62.5 62.5 0 0 0 1335.8333333333333 1036.6666666666665A61.6666666666667 61.6666666666667 0 0 0 1291.6666666666665 1020.8333333333334zM1291.6666666666665 562.5A61.6666666666667 61.6666666666667 0 0 0 1250 583.3333333333335L1000 833.3333333333335L750 583.3333333333335A62.5 62.5 0 0 0 666.6666666666666 666.6666666666667L958.3333333333331 958.3333333333334A62.5 62.5 0 0 0 1046.6666666666667 958.3333333333334L1333.3333333333333 666.6666666666667A62.5 62.5 0 0 0 1333.3333333333333 583.3333333333335A61.6666666666667 61.6666666666667 0 0 0 1291.6666666666665 562.5z" />
    <glyph glyph-name="angle-down"
      unicode="&#xF10A;"
      horiz-adv-x="2000" d="M1000 791.6666666666667A61.6666666666667 61.6666666666667 0 0 0 955.8333333333334 810.0000000000002L666.6666666666666 1101.6666666666667A62.5 62.5 0 0 0 750 1190L1000 940L1250 1190A62.5 62.5 0 0 0 1333.3333333333333 1101.6666666666667L1041.6666666666665 810.0000000000002A61.6666666666667 61.6666666666667 0 0 0 1000 791.6666666666667z" />
    <glyph glyph-name="angle-left"
      unicode="&#xF10B;"
      horiz-adv-x="2000" d="M1145.8333333333333 645.8333333333335A61.6666666666667 61.6666666666667 0 0 0 1101.6666666666667 664.1666666666667L810 955.8333333333331A62.5 62.5 0 0 0 810 1044.1666666666665L1101.6666666666667 1333.3333333333335A62.5 62.5 0 0 0 1189.9999999999998 1250L939.9999999999998 1000L1189.9999999999998 750A62.5 62.5 0 0 0 1189.9999999999998 661.6666666666667A61.6666666666667 61.6666666666667 0 0 0 1145.8333333333333 645.8333333333335z" />
    <glyph glyph-name="angle-right"
      unicode="&#xF10C;"
      horiz-adv-x="2000" d="M854.1666666666666 645.8333333333335A61.6666666666667 61.6666666666667 0 0 0 810 666.6666666666667A62.5 62.5 0 0 0 810 755L1060 1005.0000000000002L810 1255A62.5 62.5 0 0 0 898.3333333333333 1333.3333333333335L1189.9999999999998 1041.6666666666667A62.5 62.5 0 0 0 1189.9999999999998 953.3333333333331L898.3333333333333 666.6666666666667A61.6666666666667 61.6666666666667 0 0 0 854.1666666666666 645.8333333333335z" />
    <glyph glyph-name="angle-up"
      unicode="&#xF10D;"
      horiz-adv-x="2000" d="M1291.6666666666665 791.6666666666667A61.6666666666667 61.6666666666667 0 0 0 1247.5 810.0000000000002L997.5 1060L747.5 810.0000000000002A62.5 62.5 0 0 0 666.6666666666666 898.3333333333333L958.3333333333331 1190A62.5 62.5 0 0 0 1046.6666666666667 1190L1338.3333333333335 898.3333333333333A62.5 62.5 0 0 0 1338.3333333333335 810A61.6666666666667 61.6666666666667 0 0 0 1291.6666666666665 791.6666666666667z" />
    <glyph glyph-name="apple"
      unicode="&#xF10E;"
      horiz-adv-x="2000" d="M1376.6666666666665 961.6666666666669A275.8333333333333 275.8333333333333 0 0 0 1525 1211.6666666666665A320.8333333333333 320.8333333333333 0 0 1 1275 1345C1169.1666666666667 1353.3333333333333 1054.1666666666667 1283.3333333333333 1011.6666666666666 1283.3333333333333S864.1666666666667 1341.6666666666665 784.1666666666666 1341.6666666666665C617.5 1341.6666666666665 441.6666666666667 1209.1666666666665 441.6666666666667 945A749.9999999999999 749.9999999999999 0 0 1 484.1666666666666 703.3333333333333C520.8333333333333 596.6666666666667 658.3333333333334 329.1666666666668 801.6666666666665 333.3333333333335C876.6666666666666 333.3333333333335 930 386.6666666666668 1027.4999999999998 386.6666666666668S1170.8333333333333 333.3333333333335 1254.9999999999998 333.3333333333335C1399.1666666666665 333.3333333333335 1524.1666666666665 579.1666666666667 1559.9999999999998 688.3333333333335A295 295 0 0 0 1376.6666666666665 961.6666666666669zM1210 1450.8333333333333A280.8333333333333 280.8333333333333 0 0 1 1279.1666666666665 1666.6666666666667A315.8333333333333 315.8333333333333 0 0 1 1077.5 1562.5A284.1666666666667 284.1666666666667 0 0 1 1000 1349.1666666666667A250 250 0 0 1 1208.3333333333333 1450.8333333333335z" />
    <glyph glyph-name="arrow-circle-down"
      unicode="&#xF10F;"
      horiz-adv-x="2000" d="M1000 250A749.9999999999999 749.9999999999999 0 1 0 1750 1000A749.9999999999999 749.9999999999999 0 0 0 1000 250zM1000 1625A624.9999999999999 624.9999999999999 0 1 1 1625 1000A624.9999999999999 624.9999999999999 0 0 1 1000 1625zM1000 604.1666666666667A61.6666666666667 61.6666666666667 0 0 0 955.8333333333334 622.5L622.5 955.8333333333331A62.5 62.5 0 0 0 710.8333333333334 1044.1666666666665L1000 755L1289.1666666666667 1044.166666666667A62.5 62.5 0 0 0 1377.5 955.8333333333334L1044.1666666666667 622.5A61.6666666666667 61.6666666666667 0 0 0 1000 604.1666666666667zM1000 604.1666666666667A63.3333333333333 63.3333333333333 0 0 0 937.5 666.6666666666667V1333.3333333333335A62.5 62.5 0 0 0 1062.5 1333.3333333333335V666.6666666666667A63.3333333333333 63.3333333333333 0 0 0 1000 604.1666666666667z" />
    <glyph glyph-name="arrow-circle-left"
      unicode="&#xF110;"
      horiz-adv-x="2000" d="M1000 250A749.9999999999999 749.9999999999999 0 1 0 1750 1000A749.9999999999999 749.9999999999999 0 0 0 1000 250zM1000 1625A624.9999999999999 624.9999999999999 0 1 1 1625 1000A624.9999999999999 624.9999999999999 0 0 1 1000 1625zM1000 604.1666666666667A61.6666666666667 61.6666666666667 0 0 0 955.8333333333334 622.5L622.5 955.8333333333331A62.5 62.5 0 0 0 622.5 1044.1666666666665L955.8333333333334 1377.5A62.5 62.5 0 0 0 1044.1666666666667 1289.1666666666665L755 1000L1044.1666666666667 710.8333333333333A62.5 62.5 0 0 0 1044.1666666666667 622.5A61.6666666666667 61.6666666666667 0 0 0 1000 604.1666666666667zM1333.3333333333333 937.5H666.6666666666666A62.5 62.5 0 0 0 666.6666666666666 1062.5H1333.3333333333333A62.5 62.5 0 0 0 1333.3333333333333 937.5z" />
    <glyph glyph-name="arrow-circle-right"
      unicode="&#xF111;"
      horiz-adv-x="2000" d="M1000 250A749.9999999999999 749.9999999999999 0 1 0 1750 1000A749.9999999999999 749.9999999999999 0 0 0 1000 250zM1000 1625A624.9999999999999 624.9999999999999 0 1 1 1625 1000A624.9999999999999 624.9999999999999 0 0 1 1000 1625zM1000 604.1666666666667A61.6666666666667 61.6666666666667 0 0 0 955.8333333333334 622.5A62.5 62.5 0 0 0 955.8333333333334 710.8333333333333L1245 1000L955.8333333333334 1289.1666666666667A62.5 62.5 0 0 0 1044.1666666666667 1377.5L1377.5 1044.166666666667A62.5 62.5 0 0 0 1377.5 955.8333333333334L1044.1666666666667 622.5A61.6666666666667 61.6666666666667 0 0 0 1000 604.1666666666667zM1333.3333333333333 937.5H666.6666666666666A62.5 62.5 0 0 0 666.6666666666666 1062.5H1333.3333333333333A62.5 62.5 0 0 0 1333.3333333333333 937.5z" />
    <glyph glyph-name="arrow-circle-up"
      unicode="&#xF112;"
      horiz-adv-x="2000" d="M1000 250A749.9999999999999 749.9999999999999 0 1 0 1750 1000A749.9999999999999 749.9999999999999 0 0 0 1000 250zM1000 1625A624.9999999999999 624.9999999999999 0 1 1 1625 1000A624.9999999999999 624.9999999999999 0 0 1 1000 1625zM1333.3333333333333 937.5A61.6666666666667 61.6666666666667 0 0 0 1289.1666666666667 955.8333333333334L1000 1245L710.8333333333333 955.8333333333334A62.5 62.5 0 0 0 622.4999999999999 1044.166666666667L955.8333333333331 1377.5A62.5 62.5 0 0 0 1044.1666666666665 1377.5L1377.5 1044.166666666667A62.5 62.5 0 0 0 1377.5 955.8333333333334A61.6666666666667 61.6666666666667 0 0 0 1333.3333333333333 937.5zM1000 604.1666666666667A63.3333333333333 63.3333333333333 0 0 0 937.5 666.6666666666667V1333.3333333333335A62.5 62.5 0 0 0 1062.5 1333.3333333333335V666.6666666666667A63.3333333333333 63.3333333333333 0 0 0 1000 604.1666666666667z" />
    <glyph glyph-name="arrow-down-left"
      unicode="&#xF113;"
      horiz-adv-x="2000" d="M1294.9999999999998 525.0000000000002A62.5 62.5 0 0 1 1294.9999999999998 650.0000000000002H738.3333333333333L1456.6666666666663 1368.3333333333335A62.5 62.5 0 1 1 1368.333333333333 1456.6666666666667L650 738.3333333333333V1295A62.5 62.5 0 0 1 525 1295V583.3333333333335A62.5 62.5 0 0 1 529.9999999999999 559.1666666666667A63.3333333333333 63.3333333333333 0 0 1 587.4999999999999 520.8333333333335z" />
    <glyph glyph-name="arrow-down-right"
      unicode="&#xF114;"
      horiz-adv-x="2000" d="M1474.9999999999998 1295A62.5 62.5 0 1 1 1349.9999999999998 1295V738.3333333333333L631.6666666666666 1456.6666666666667A62.5 62.5 0 0 1 543.3333333333333 1368.3333333333335L1261.6666666666665 650.0000000000002H705A62.5 62.5 0 0 1 705 525.0000000000002H1416.6666666666665A62.5 62.5 0 0 1 1440.8333333333333 530A63.3333333333333 63.3333333333333 0 0 1 1474.9999999999998 583.3333333333335z" />
    <glyph glyph-name="arrow-down"
      unicode="&#xF115;"
      horiz-adv-x="2000" d="M1000 354.1666666666668A61.6666666666667 61.6666666666667 0 0 0 955.8333333333334 372.5L455.8333333333334 872.5A62.5 62.5 0 0 0 544.1666666666667 960.8333333333331L1000 505L1455.8333333333333 960.8333333333331A62.5 62.5 0 0 0 1544.1666666666663 872.4999999999998L1044.1666666666665 372.5A61.6666666666667 61.6666666666667 0 0 0 1000 354.1666666666668zM1000 354.1666666666668A63.3333333333333 63.3333333333333 0 0 0 937.5 416.6666666666668V1583.3333333333335A62.5 62.5 0 0 0 1062.5 1583.3333333333335V416.6666666666668A63.3333333333333 63.3333333333333 0 0 0 1000 354.1666666666668z" />
    <glyph glyph-name="arrow-left"
      unicode="&#xF116;"
      horiz-adv-x="2000" d="M916.6666666666666 437.5A61.6666666666667 61.6666666666667 0 0 0 872.5 455.8333333333333L372.5000000000001 955.8333333333331A62.5 62.5 0 0 0 372.5000000000001 1044.1666666666665L872.5 1544.1666666666665A62.5 62.5 0 0 0 960.8333333333334 1455.8333333333333L504.9999999999999 1000L960.8333333333331 544.1666666666667A62.5 62.5 0 0 0 960.8333333333331 455.8333333333337A61.6666666666667 61.6666666666667 0 0 0 916.6666666666666 437.5zM1583.3333333333333 937.5H416.6666666666667A62.5 62.5 0 0 0 416.6666666666667 1062.5H1583.3333333333333A62.5 62.5 0 0 0 1583.3333333333333 937.5z" />
    <glyph glyph-name="arrow-right-arrow-left"
      unicode="&#xF117;"
      horiz-adv-x="2000" d="M1645.8333333333333 666.6666666666667C1645.8333333333333 632.5 1617.5 604.1666666666667 1583.3333333333333 604.1666666666667H567.4999999999999L669.1666666666666 502.5000000000002C693.3333333333331 478.3333333333335 693.3333333333331 438.3333333333335 669.1666666666666 414.166666666667C656.6666666666665 401.666666666667 640.8333333333333 395.8333333333337 624.9999999999999 395.8333333333337S593.3333333333333 401.666666666667 580.8333333333333 414.166666666667L372.4999999999999 622.5000000000002C366.6666666666665 628.3333333333337 362.4999999999999 635.0000000000002 359.1666666666665 642.5000000000002C352.4999999999999 657.5000000000002 352.4999999999999 675.0000000000002 359.1666666666665 690.0000000000002C362.4999999999999 697.5000000000002 366.6666666666665 704.1666666666667 372.4999999999999 710.0000000000002L580.8333333333333 918.3333333333334C604.9999999999999 942.5 644.9999999999999 942.5 669.1666666666666 918.3333333333334S693.3333333333331 854.166666666667 669.1666666666666 830.0000000000002L567.4999999999999 728.3333333333335H1583.3333333333333C1617.5 728.3333333333335 1645.8333333333333 700 1645.8333333333333 665.8333333333335zM416.6666666666667 1270.8333333333335H1432.4999999999998L1330.833333333333 1169.1666666666665C1306.6666666666665 1145 1306.6666666666665 1105 1330.833333333333 1080.8333333333333C1343.333333333333 1068.3333333333333 1359.1666666666665 1062.5 1374.9999999999995 1062.5S1406.6666666666663 1068.3333333333333 1419.1666666666663 1080.8333333333333L1627.4999999999998 1289.1666666666665C1633.333333333333 1295 1637.4999999999998 1301.6666666666665 1640.833333333333 1309.1666666666665C1647.4999999999995 1324.1666666666665 1647.4999999999995 1341.6666666666665 1640.833333333333 1356.6666666666665C1637.4999999999998 1364.1666666666665 1633.333333333333 1370.8333333333333 1627.4999999999998 1376.6666666666665L1419.1666666666663 1585C1394.9999999999998 1609.1666666666665 1354.9999999999998 1609.1666666666665 1330.833333333333 1585S1306.6666666666665 1520.8333333333335 1330.833333333333 1496.6666666666665L1432.4999999999998 1395H416.6666666666667C382.5 1395 354.1666666666667 1366.6666666666665 354.1666666666667 1332.5S382.5 1270 416.6666666666667 1270z" />
    <glyph glyph-name="arrow-right"
      unicode="&#xF118;"
      horiz-adv-x="2000" d="M1083.3333333333333 437.5A61.6666666666667 61.6666666666667 0 0 0 1039.1666666666667 455.8333333333333A62.5 62.5 0 0 0 1039.1666666666667 544.1666666666665L1495 1000L1039.1666666666667 1455.8333333333335A62.5 62.5 0 0 0 1127.5 1544.1666666666665L1627.5 1044.1666666666665A62.5 62.5 0 0 0 1627.5 955.8333333333331L1127.5 455.8333333333333A61.6666666666667 61.6666666666667 0 0 0 1083.3333333333333 437.5zM1583.3333333333333 937.5H416.6666666666667A62.5 62.5 0 0 0 416.6666666666667 1062.5H1583.3333333333333A62.5 62.5 0 0 0 1583.3333333333333 937.5z" />
    <glyph glyph-name="arrow-up-left"
      unicode="&#xF119;"
      horiz-adv-x="2000" d="M525 705.0000000000002A62.5 62.5 0 0 1 650 705.0000000000002V1261.6666666666667L1368.333333333333 543.3333333333337A62.5 62.5 0 1 1 1456.6666666666663 631.666666666667L738.3333333333333 1350H1294.9999999999998A62.5 62.5 0 0 1 1294.9999999999998 1475H587.5A62.5 62.5 0 0 1 563.3333333333333 1470A63.3333333333333 63.3333333333333 0 0 1 525 1412.5z" />
    <glyph glyph-name="arrow-up-right"
      unicode="&#xF11A;"
      horiz-adv-x="2000" d="M705 1475A62.5 62.5 0 1 1 705 1350H1261.6666666666667L543.3333333333333 631.6666666666665A62.5 62.5 0 1 1 631.6666666666666 543.3333333333335L1349.9999999999998 1261.6666666666667V705.0000000000002A62.5 62.5 0 0 1 1474.9999999999998 705.0000000000002V1412.5A62.5 62.5 0 0 1 1470 1436.6666666666667A63.3333333333333 63.3333333333333 0 0 1 1416.6666666666665 1475z" />
    <glyph glyph-name="arrow-up"
      unicode="&#xF11B;"
      horiz-adv-x="2000" d="M1500 1020.8333333333334A61.6666666666667 61.6666666666667 0 0 0 1455.8333333333333 1039.1666666666667L1000 1495L544.1666666666666 1039.1666666666667A62.5 62.5 0 0 0 455.8333333333334 1127.5L955.8333333333334 1627.5A62.5 62.5 0 0 0 1044.1666666666667 1627.5L1544.1666666666667 1127.5A62.5 62.5 0 0 0 1544.1666666666667 1039.1666666666667A61.6666666666667 61.6666666666667 0 0 0 1500 1020.8333333333334zM1000 354.1666666666668A63.3333333333333 63.3333333333333 0 0 0 937.5 416.6666666666668V1583.3333333333335A62.5 62.5 0 0 0 1062.5 1583.3333333333335V416.6666666666668A63.3333333333333 63.3333333333333 0 0 0 1000 354.1666666666668z" />
    <glyph glyph-name="arrows-alt"
      unicode="&#xF11C;"
      horiz-adv-x="2000" d="M1724.1666666666667 975.8333333333334C1720.8333333333335 968.3333333333334 1716.6666666666667 961.6666666666669 1710.8333333333333 955.8333333333334L1502.5 747.5000000000002C1490.0000000000002 735 1474.1666666666667 729.1666666666667 1458.3333333333333 729.1666666666667S1426.6666666666667 735 1414.1666666666665 747.5000000000002C1390 771.6666666666667 1390 811.6666666666667 1414.1666666666665 835.8333333333335L1515.833333333333 937.5000000000002H1062.4999999999995V484.166666666667L1164.1666666666663 585.8333333333335C1188.333333333333 610 1228.333333333333 610 1252.4999999999998 585.8333333333335S1276.6666666666663 521.666666666667 1252.4999999999998 497.5000000000002L1044.1666666666665 289.166666666667C1038.333333333333 283.3333333333337 1031.6666666666663 279.166666666667 1024.1666666666663 275.8333333333337C1016.6666666666664 272.5000000000005 1008.3333333333331 270.8333333333337 999.9999999999998 270.8333333333337S983.3333333333331 272.5000000000005 975.8333333333331 275.8333333333337C968.3333333333331 279.166666666667 961.6666666666666 283.3333333333337 955.8333333333331 289.166666666667L747.4999999999999 497.5000000000002C723.3333333333333 521.666666666667 723.3333333333333 561.666666666667 747.4999999999999 585.8333333333335S811.6666666666665 610 835.8333333333333 585.8333333333335L937.5 484.166666666667V937.5000000000005H484.1666666666666L585.8333333333333 835.8333333333337C609.9999999999999 811.666666666667 609.9999999999999 771.666666666667 585.8333333333333 747.5000000000002C573.3333333333333 735.0000000000002 557.4999999999999 729.166666666667 541.6666666666665 729.166666666667S509.9999999999999 735.0000000000002 497.4999999999999 747.5000000000002L289.1666666666666 955.8333333333334C283.3333333333333 961.666666666667 279.1666666666666 968.3333333333338 275.8333333333332 975.8333333333338C269.1666666666665 990.8333333333336 269.1666666666665 1008.3333333333338 275.8333333333332 1023.3333333333336C279.1666666666666 1030.8333333333335 283.3333333333332 1037.5000000000005 289.1666666666666 1043.3333333333335L497.4999999999999 1251.666666666667C521.6666666666665 1275.8333333333335 561.6666666666665 1275.8333333333335 585.8333333333333 1251.666666666667S609.9999999999999 1187.5000000000005 585.8333333333333 1163.3333333333335L484.1666666666666 1061.666666666667H937.5V1515.8333333333335L835.8333333333333 1414.1666666666667C811.6666666666666 1390 771.6666666666666 1390 747.4999999999999 1414.1666666666667S723.3333333333333 1478.3333333333335 747.4999999999999 1502.5L955.8333333333331 1710.8333333333335C961.6666666666666 1716.6666666666667 968.3333333333331 1720.8333333333335 975.8333333333331 1724.1666666666667C990.8333333333331 1730.8333333333335 1008.3333333333331 1730.8333333333335 1023.3333333333331 1724.1666666666667C1030.8333333333333 1720.8333333333335 1037.4999999999998 1716.6666666666667 1043.3333333333333 1710.8333333333335L1251.6666666666665 1502.5C1275.8333333333333 1478.3333333333335 1275.8333333333333 1438.3333333333335 1251.6666666666665 1414.1666666666667C1239.1666666666665 1401.6666666666667 1223.3333333333333 1395.8333333333335 1207.5 1395.8333333333335S1175.8333333333333 1401.6666666666667 1163.3333333333333 1414.1666666666667L1061.6666666666665 1515.8333333333335V1062.5H1515L1413.3333333333333 1164.1666666666667C1389.1666666666667 1188.3333333333335 1389.1666666666667 1228.3333333333335 1413.3333333333333 1252.5S1477.5 1276.6666666666667 1501.6666666666665 1252.5L1709.9999999999998 1044.166666666667C1715.8333333333333 1038.3333333333335 1720 1031.6666666666667 1723.3333333333333 1024.1666666666667C1729.9999999999998 1009.1666666666669 1729.9999999999998 991.6666666666669 1723.3333333333333 976.6666666666669z" />
    <glyph glyph-name="arrows-h"
      unicode="&#xF11D;"
      horiz-adv-x="2000" d="M1724.1666666666667 1024.1666666666665A65 65 0 0 1 1710.8333333333333 1044.1666666666665L1377.5 1377.5A62.5 62.5 0 1 1 1289.1666666666667 1289.1666666666665L1515.8333333333333 1062.5H484.1666666666666L710.8333333333333 1289.1666666666667A62.5 62.5 0 0 1 622.5 1377.5L289.1666666666667 1044.166666666667A65 65 0 0 1 275.8333333333333 1024.1666666666667A60.8333333333333 60.8333333333333 0 0 1 275.8333333333333 975.8333333333334A65 65 0 0 1 289.1666666666667 955.8333333333334L622.5 622.5A62.5 62.5 0 0 1 710.8333333333333 622.5A62.5 62.5 0 0 1 710.8333333333333 710.8333333333333L484.1666666666666 937.5H1515.8333333333333L1289.1666666666667 710.8333333333333A62.5 62.5 0 0 1 1289.1666666666667 622.5A62.5 62.5 0 0 1 1377.5 622.5L1710.8333333333333 955.8333333333331A65 65 0 0 1 1724.1666666666667 975.8333333333331A60.8333333333333 60.8333333333333 0 0 1 1724.1666666666667 1024.1666666666665z" />
    <glyph glyph-name="arrows-v"
      unicode="&#xF11E;"
      horiz-adv-x="2000" d="M1024.1666666666665 275.8333333333333A65 65 0 0 1 1044.1666666666665 289.1666666666668L1377.5 622.5A62.5 62.5 0 0 1 1289.1666666666667 710.8333333333333L1062.5 484.1666666666667V1515.8333333333335L1289.1666666666667 1289.1666666666667A62.5 62.5 0 0 1 1377.5 1377.5L1044.1666666666667 1710.8333333333335A65 65 0 0 1 1024.1666666666667 1724.1666666666667A60.8333333333333 60.8333333333333 0 0 1 975.8333333333334 1724.1666666666667A65 65 0 0 1 955.8333333333334 1710.8333333333335L622.5 1377.5A62.5 62.5 0 0 1 622.5 1289.1666666666667A62.5 62.5 0 0 1 710.8333333333334 1289.1666666666667L937.5000000000002 1515.8333333333335V484.1666666666667L710.8333333333333 710.8333333333333A62.5 62.5 0 0 1 622.4999999999999 710.8333333333333A62.5 62.5 0 0 1 622.4999999999999 622.5L955.8333333333331 289.1666666666668A65 65 0 0 1 975.8333333333331 275.8333333333333A60.8333333333333 60.8333333333333 0 0 1 1024.1666666666665 275.8333333333333z" />
    <glyph glyph-name="at"
      unicode="&#xF11F;"
      horiz-adv-x="2000" d="M1000 1729.1666666666667A729.1666666666665 729.1666666666665 0 0 1 270.8333333333333 1000A720.8333333333333 720.8333333333333 0 0 1 1000 270.8333333333335A62.5 62.5 0 0 1 1000 395.8333333333335A597.4999999999999 597.4999999999999 0 0 0 395.8333333333333 1000A605 605 0 0 0 1000 1604.1666666666667C1400.8333333333333 1604.1666666666667 1604.1666666666665 1400.8333333333335 1604.1666666666665 1000V885.0000000000002A121.6666666666667 121.6666666666667 0 1 0 1361.6666666666665 885.0000000000002V1301.6666666666667A62.5 62.5 0 0 1 1236.6666666666665 1301.6666666666667V1273.3333333333335A359.1666666666667 359.1666666666667 0 0 1 1000 1361.6666666666667A361.6666666666667 361.6666666666667 0 0 1 1000 638.3333333333335A358.3333333333333 358.3333333333333 0 0 1 1270 762.5A245.8333333333333 245.8333333333333 0 0 1 1729.1666666666665 885.0000000000002V1000C1729.1666666666665 1470 1470 1729.1666666666667 1000 1729.1666666666667zM1000 763.3333333333335A236.6666666666667 236.6666666666667 0 1 0 1236.6666666666665 1000A237.5 237.5 0 0 0 1000 763.3333333333335z" />
    <glyph glyph-name="backward"
      unicode="&#xF120;"
      horiz-adv-x="2000" d="M1691.6666666666667 1640.8333333333335C1669.1666666666667 1650.8333333333335 1642.5 1645.8333333333335 1624.1666666666667 1629.1666666666667L1018.3333333333334 1060.8333333333335V1583.3333333333335C1018.3333333333334 1608.3333333333333 1003.3333333333334 1630.8333333333335 980.8333333333334 1640.8333333333333C958.3333333333336 1650.8333333333333 931.6666666666669 1645.8333333333333 913.3333333333334 1629.1666666666667L290.8333333333333 1045.8333333333335C278.3333333333333 1034.1666666666667 270.8333333333333 1017.5000000000002 270.8333333333333 1000S278.3333333333333 965.8333333333334 290.8333333333333 954.1666666666669L913.3333333333334 370.8333333333333C925.0000000000002 360.0000000000003 940.8333333333334 354.1666666666668 955.8333333333334 354.1666666666668C964.1666666666666 354.1666666666668 972.4999999999998 355.8333333333335 980.8333333333334 359.1666666666668C1003.3333333333334 369.1666666666668 1018.3333333333334 391.6666666666668 1018.3333333333334 416.6666666666668V939.1666666666669L1624.1666666666667 370.8333333333333C1635.8333333333335 360.0000000000003 1651.6666666666665 354.1666666666668 1666.666666666667 354.1666666666668C1675.0000000000002 354.1666666666668 1683.3333333333335 355.8333333333335 1691.666666666667 359.1666666666668C1714.166666666667 369.1666666666668 1729.166666666667 391.6666666666668 1729.166666666667 416.6666666666668V1583.3333333333335C1729.166666666667 1608.3333333333333 1714.166666666667 1630.8333333333335 1691.666666666667 1640.8333333333333zM893.3333333333334 560.8333333333335L425 1000L893.3333333333334 1439.1666666666665V560.8333333333335zM1604.1666666666665 560.8333333333335L1135.8333333333333 1000L1604.1666666666665 1439.1666666666665V560.8333333333335z" />
    <glyph glyph-name="ban"
      unicode="&#xF121;"
      horiz-adv-x="2000" d="M1000 1750A749.9999999999999 749.9999999999999 0 1 1 1750 1000A749.9999999999999 749.9999999999999 0 0 1 1000 1750zM375 1000A620 620 0 0 0 516.6666666666666 1395L1394.9999999999998 516.6666666666667A624.1666666666667 624.1666666666667 0 0 0 375 1000zM1483.3333333333333 605L605 1483.3333333333335A624.1666666666667 624.1666666666667 0 0 0 1483.3333333333333 605.0000000000002z" />
    <glyph glyph-name="bars"
      unicode="&#xF122;"
      horiz-adv-x="2000" d="M1583.3333333333333 937.5H416.6666666666667A62.5 62.5 0 0 0 416.6666666666667 1062.5H1583.3333333333333A62.5 62.5 0 0 0 1583.3333333333333 937.5zM1583.3333333333333 1312.5H416.6666666666667A62.5 62.5 0 0 0 416.6666666666667 1437.5H1583.3333333333333A62.5 62.5 0 0 0 1583.3333333333333 1312.5zM1583.3333333333333 562.5H416.6666666666667A62.5 62.5 0 0 0 416.6666666666667 687.5H1583.3333333333333A62.5 62.5 0 0 0 1583.3333333333333 562.5z" />
    <glyph glyph-name="bell"
      unicode="&#xF123;"
      horiz-adv-x="2000" d="M1710.8333333333333 645.8333333333335C1703.3333333333333 645.8333333333335 1535 675.8333333333333 1535 1166.6666666666667C1535 1513.3333333333335 1333.3333333333333 1729.1666666666667 1000 1729.1666666666667S465 1513.3333333333335 465 1166.6666666666667C465 666.6666666666667 290.8333333333333 645.8333333333335 291.6666666666667 645.8333333333335A62.5 62.5 0 0 1 291.6666666666667 520.8333333333335H694.1666666666666A311.6666666666667 311.6666666666667 0 0 1 1305.8333333333333 520.8333333333335H1709.1666666666665A62.5 62.5 0 0 1 1709.1666666666665 645.8333333333335zM1000.0000000000002 395.8333333333335A186.6666666666667 186.6666666666667 0 0 0 824.1666666666669 520.8333333333335H1175.8333333333335A186.6666666666667 186.6666666666667 0 0 0 1000 395.8333333333335zM480.0000000000001 645.8333333333335C540.0000000000001 736.6666666666667 590.0000000000001 895.8333333333335 590.0000000000001 1166.6666666666667S740 1604.1666666666667 1000 1604.1666666666667S1410 1445 1410 1166.6666666666667S1460.0000000000002 736.6666666666667 1520 645.8333333333335z" />
    <glyph glyph-name="bitcoin"
      unicode="&#xF124;"
      horiz-adv-x="2000" d="M1126.6666666666665 860.8333333333335C1104.1666666666665 770 951.6666666666666 819.1666666666667 901.6666666666666 831.6666666666667L941.6666666666666 992.5000000000002C991.6666666666666 980 1150 955.8333333333334 1126.6666666666667 860.8333333333335zM996.6666666666666 1212.5L959.9999999999998 1066.6666666666667C1001.6666666666666 1056.666666666667 1129.1666666666665 1014.1666666666669 1149.9999999999998 1096.6666666666667C1170.8333333333333 1182.5 1038.3333333333333 1202.5 996.6666666666666 1212.5zM1646.6666666666665 839.1666666666667C1557.4999999999998 482.5 1195.833333333333 265 838.3333333333331 353.3333333333335C481.6666666666665 442.5000000000003 263.3333333333332 804.166666666667 352.4999999999999 1160.8333333333335C441.6666666666666 1518.3333333333335 803.3333333333331 1735 1160.833333333333 1646.6666666666667C1517.4999999999998 1557.5 1735.833333333333 1195.8333333333335 1646.6666666666665 839.166666666667zM780.833333333333 888.3333333333335C777.4999999999998 879.1666666666667 768.333333333333 865.8333333333335 747.4999999999997 870.8333333333333C744.1666666666664 870.8333333333333 694.1666666666663 884.1666666666667 694.1666666666663 884.1666666666667L657.4999999999997 800.8333333333333L752.4999999999997 777.5C770.833333333333 772.5 787.4999999999995 768.3333333333335 804.9999999999997 763.3333333333335L774.9999999999998 642.5000000000002L847.4999999999997 624.166666666667L877.4999999999995 744.166666666667C897.4999999999997 738.3333333333335 916.6666666666662 734.166666666667 935.833333333333 729.166666666667L905.833333333333 610L979.1666666666662 591.666666666667L1009.1666666666662 712.5000000000002C1134.1666666666663 689.1666666666667 1228.3333333333328 698.3333333333335 1267.4999999999995 811.6666666666667C1299.1666666666663 902.5 1265.833333333333 955.0000000000002 1199.9999999999995 989.1666666666669C1247.4999999999995 1000.0000000000002 1283.3333333333328 1031.6666666666667 1293.333333333333 1096.6666666666667C1306.6666666666663 1185 1239.1666666666663 1233.3333333333335 1146.6666666666663 1264.1666666666667L1176.6666666666663 1385L1103.3333333333328 1403.3333333333335L1074.1666666666663 1286.6666666666665C1054.9999999999995 1291.6666666666667 1034.9999999999995 1295.8333333333333 1014.9999999999995 1300.8333333333335L1044.1666666666663 1418.3333333333335L971.6666666666662 1436.6666666666665L941.6666666666664 1316.6666666666665C925.833333333333 1320 909.9999999999995 1324.1666666666665 894.9999999999997 1327.5L794.1666666666664 1353.3333333333333L774.9999999999998 1275S828.3333333333331 1262.5 828.3333333333331 1261.6666666666665C857.4999999999998 1254.1666666666665 862.4999999999998 1235 862.4999999999998 1219.1666666666665L779.9999999999998 890z" />
    <glyph glyph-name="bolt"
      unicode="&#xF125;"
      horiz-adv-x="2000" d="M924.1666666666666 208.3333333333335A55.8333333333333 55.8333333333333 0 0 0 904.1666666666666 208.3333333333335A69.1666666666667 69.1666666666667 0 0 0 854.9999999999999 275.8333333333333V285L930 814.1666666666665H568.3333333333334A66.6666666666667 66.6666666666667 0 0 0 509.1666666666667 849.9999999999998A70.8333333333333 70.8333333333333 0 0 0 509.1666666666667 921.6666666666666L675.8333333333333 1212.4999999999998L1017.4999999999998 1755.833333333333A65.8333333333333 65.8333333333333 0 0 0 1094.1666666666665 1784.9999999999998A69.1666666666667 69.1666666666667 0 0 0 1143.3333333333333 1717.4999999999998V1708.333333333333L1068.3333333333333 1179.1666666666665H1430.833333333333A66.6666666666667 66.6666666666667 0 0 0 1489.9999999999998 1143.333333333333A70.8333333333333 70.8333333333333 0 0 0 1489.9999999999998 1071.6666666666665L1323.3333333333333 780.8333333333333L981.6666666666666 237.5A65.8333333333333 65.8333333333333 0 0 0 924.1666666666666 208.3333333333335zM880 309.1666666666668H880zM660.8333333333334 942.5H994.1666666666666A70 70 0 0 0 1063.3333333333333 871.6666666666667V862.5000000000002L1014.1666666666666 517.5000000000002L1222.5 850.8333333333335L1342.4999999999998 1057.5H1009.1666666666666A70 70 0 0 0 939.9999999999998 1128.3333333333335V1137.5L989.1666666666666 1482.5L780.8333333333333 1149.1666666666665zM613.3333333333334 859.1666666666667zM1386.6666666666667 1137.5zM1120 1691.6666666666667H1120z" />
    <glyph glyph-name="book"
      unicode="&#xF126;"
      horiz-adv-x="2000" d="M1583.3333333333333 1729.1666666666667H562.5A202.5 202.5 0 0 1 354.1666666666667 1533.3333333333335V500A237.5 237.5 0 0 1 599.1666666666666 270.8333333333335H1583.3333333333333A63.3333333333333 63.3333333333333 0 0 1 1645.8333333333333 333.3333333333335V1666.6666666666667A63.3333333333333 63.3333333333333 0 0 1 1583.3333333333333 1729.1666666666667zM1520.8333333333333 395.8333333333335H599.1666666666666A112.5 112.5 0 0 0 479.1666666666666 500A112.5 112.5 0 0 0 599.1666666666666 604.1666666666667H1520.8333333333333zM1520.8333333333333 729.1666666666667H599.1666666666666A250 250 0 0 1 479.1666666666666 698.3333333333335V1533.3333333333335A78.3333333333333 78.3333333333333 0 0 0 562.5 1604.1666666666667H1520.8333333333333zM729.1666666666666 1270.8333333333335H1270.8333333333333A62.5 62.5 0 0 1 1270.8333333333333 1395.8333333333335H729.1666666666666A62.5 62.5 0 0 1 729.1666666666666 1270.8333333333335zM729.1666666666666 979.1666666666669H1270.8333333333333A62.5 62.5 0 0 1 1270.8333333333333 1104.1666666666667H729.1666666666666A62.5 62.5 0 0 1 729.1666666666666 979.1666666666669z" />
    <glyph glyph-name="bookmark-fill"
      unicode="&#xF127;"
      horiz-adv-x="2000" d="M1312.5 1729.1666666666667H687.5A229.1666666666667 229.1666666666667 0 0 1 458.3333333333333 1500V333.3333333333335A62.5 62.5 0 0 1 556.6666666666666 281.6666666666668L1000 590.8333333333335L1443.3333333333333 281.6666666666668A62.5 62.5 0 0 1 1479.1666666666665 270.8333333333335A70.8333333333333 70.8333333333333 0 0 1 1508.3333333333333 277.5A64.1666666666667 64.1666666666667 0 0 1 1541.6666666666665 333.3333333333335V1500A229.1666666666667 229.1666666666667 0 0 1 1312.5 1729.1666666666667z" />
    <glyph glyph-name="bookmark"
      unicode="&#xF128;"
      horiz-adv-x="2000" d="M1479.1666666666665 270.8333333333335A69.1666666666667 69.1666666666667 0 0 0 1443.3333333333333 281.6666666666668L1000 590.8333333333335L556.6666666666666 281.6666666666668A62.5 62.5 0 0 0 491.6666666666666 281.6666666666668A61.6666666666667 61.6666666666667 0 0 0 458.3333333333333 333.3333333333335V1500A229.1666666666667 229.1666666666667 0 0 0 687.5 1729.1666666666667H1312.5A229.1666666666667 229.1666666666667 0 0 0 1541.6666666666665 1500V333.3333333333335A61.6666666666667 61.6666666666667 0 0 0 1508.3333333333333 278.3333333333335A60.8333333333333 60.8333333333333 0 0 0 1479.1666666666665 270.8333333333335zM1000 729.1666666666667A62.5 62.5 0 0 0 1035.8333333333333 718.3333333333333L1416.6666666666665 453.3333333333335V1500A104.1666666666667 104.1666666666667 0 0 1 1312.5 1604.1666666666667H687.5A104.1666666666667 104.1666666666667 0 0 1 583.3333333333333 1500V453.3333333333335L964.1666666666666 718.3333333333335A62.5 62.5 0 0 0 1000 729.1666666666667z" />
    <glyph glyph-name="box"
      unicode="&#xF129;"
      horiz-adv-x="2000" d="M1727.5 623.3333333333335S1727.5 629.1666666666667 1727.5 632.5V1367.5A60.8333333333333 60.8333333333333 0 0 1 1720.8333333333335 1395A61.6666666666667 61.6666666666667 0 0 1 1690.8333333333335 1425L1024.1666666666667 1723.3333333333335A62.5 62.5 0 0 1 972.5000000000002 1723.3333333333335L305.8333333333336 1425A66.6666666666667 66.6666666666667 0 0 1 269.166666666667 1367.5V632.5A69.1666666666667 69.1666666666667 0 0 1 305.8333333333336 575L972.5000000000002 276.6666666666668A60 60 0 0 1 1024.1666666666667 276.6666666666668L1690.8333333333335 575A64.1666666666667 64.1666666666667 0 0 1 1727.5 623.3333333333335zM394.1666666666667 1271.666666666667L935.8333333333334 1028.3333333333335V430.0000000000005L394.1666666666667 672.5000000000005zM1060.8333333333333 1028.3333333333335L1602.5 1271.666666666667V672.5L1060.8333333333333 430zM1000 1598.3333333333333L1514.1666666666667 1367.5L1000 1137.5L485.8333333333333 1367.5z" />
    <glyph glyph-name="briefcase"
      unicode="&#xF12A;"
      horiz-adv-x="2000" d="M1583.3333333333333 1479.1666666666667H1270.8333333333333V1583.3333333333335A157.5 157.5 0 0 1 1104.1666666666665 1729.1666666666667H895.8333333333333A157.5 157.5 0 0 1 729.1666666666666 1583.3333333333335V1479.1666666666667H416.6666666666667A146.6666666666666 146.6666666666666 0 0 1 270.8333333333333 1333.3333333333335V500A146.6666666666666 146.6666666666666 0 0 1 416.6666666666667 354.1666666666668H1583.3333333333333A146.6666666666666 146.6666666666666 0 0 1 1729.1666666666665 500V1333.3333333333335A146.6666666666666 146.6666666666666 0 0 1 1583.3333333333333 1479.1666666666667zM854.1666666666666 1583.3333333333335C854.1666666666666 1590 869.9999999999999 1604.1666666666667 895.8333333333333 1604.1666666666667H1104.1666666666665C1130 1604.1666666666667 1145.8333333333333 1590 1145.8333333333333 1583.3333333333335V1479.1666666666667H854.1666666666666zM416.6666666666667 1354.1666666666667H1583.3333333333333A20.8333333333333 20.8333333333333 0 0 0 1604.1666666666665 1333.3333333333335V1062.5H395.8333333333333V1333.3333333333335A20.8333333333333 20.8333333333333 0 0 0 416.6666666666667 1354.1666666666667zM729.1666666666666 937.5H1270.8333333333333V812.5H729.1666666666666zM1583.3333333333333 479.1666666666667H416.6666666666667A20.8333333333333 20.8333333333333 0 0 0 395.8333333333333 500V937.5H604.1666666666666V750A63.3333333333333 63.3333333333333 0 0 1 666.6666666666666 687.5H1333.3333333333333A63.3333333333333 63.3333333333333 0 0 1 1395.8333333333333 750V937.5H1604.1666666666665V500A20.8333333333333 20.8333333333333 0 0 0 1583.3333333333333 479.1666666666667z" />
    <glyph glyph-name="building"
      unicode="&#xF12B;"
      horiz-adv-x="2000" d="M791.6666666666666 1500H875A41.6666666666667 41.6666666666667 0 0 0 916.6666666666666 1458.3333333333335V1375A41.6666666666667 41.6666666666667 0 0 0 875 1333.3333333333335H791.6666666666666A41.6666666666667 41.6666666666667 0 0 0 750 1375V1458.3333333333335A41.6666666666667 41.6666666666667 0 0 0 791.6666666666666 1500zM1125 1500H1208.3333333333333A41.6666666666667 41.6666666666667 0 0 0 1250 1458.3333333333335V1375A41.6666666666667 41.6666666666667 0 0 0 1208.3333333333333 1333.3333333333335H1125A41.6666666666667 41.6666666666667 0 0 0 1083.3333333333333 1375V1458.3333333333335A41.6666666666667 41.6666666666667 0 0 0 1125 1500zM791.6666666666666 1208.3333333333335H875A41.6666666666667 41.6666666666667 0 0 0 916.6666666666666 1166.6666666666667V1083.3333333333335A41.6666666666667 41.6666666666667 0 0 0 875 1041.6666666666667H791.6666666666666A41.6666666666667 41.6666666666667 0 0 0 750 1083.3333333333335V1166.6666666666667A41.6666666666667 41.6666666666667 0 0 0 791.6666666666666 1208.3333333333335zM1125 1208.3333333333335H1208.3333333333333A41.6666666666667 41.6666666666667 0 0 0 1250 1166.6666666666667V1083.3333333333335A41.6666666666667 41.6666666666667 0 0 0 1208.3333333333333 1041.6666666666667H1125A41.6666666666667 41.6666666666667 0 0 0 1083.3333333333333 1083.3333333333335V1166.6666666666667A41.6666666666667 41.6666666666667 0 0 0 1125 1208.3333333333335zM791.6666666666666 916.6666666666669H875A41.6666666666667 41.6666666666667 0 0 0 916.6666666666666 875V791.6666666666667A41.6666666666667 41.6666666666667 0 0 0 875 750H791.6666666666666A41.6666666666667 41.6666666666667 0 0 0 750 791.6666666666667V875A41.6666666666667 41.6666666666667 0 0 0 791.6666666666666 916.6666666666669zM1125 916.6666666666669H1208.3333333333333A41.6666666666667 41.6666666666667 0 0 0 1250 875V791.6666666666667A41.6666666666667 41.6666666666667 0 0 0 1208.3333333333333 750H1125A41.6666666666667 41.6666666666667 0 0 0 1083.3333333333333 791.6666666666667V875A41.6666666666667 41.6666666666667 0 0 0 1125 916.6666666666669zM1520.8333333333333 395.8333333333335H1479.1666666666665V1666.6666666666667A63.3333333333333 63.3333333333333 0 0 1 1416.6666666666665 1729.1666666666667H583.3333333333333A63.3333333333333 63.3333333333333 0 0 1 520.8333333333333 1666.6666666666667V395.8333333333335H479.1666666666666A62.5 62.5 0 0 1 479.1666666666666 270.8333333333335H1520.8333333333333A62.5 62.5 0 0 1 1520.8333333333333 395.8333333333335zM1354.1666666666665 395.8333333333335H916.6666666666666V583.3333333333335A41.6666666666667 41.6666666666667 0 0 1 875 625H791.6666666666666A41.6666666666667 41.6666666666667 0 0 1 750 583.3333333333335V395.8333333333335H645.8333333333333V1604.1666666666667H1354.1666666666665z" />
    <glyph glyph-name="calculator"
      unicode="&#xF12C;"
      horiz-adv-x="2000" d="M1291.6666666666665 1312.5H708.3333333333333C685 1312.5 666.6666666666666 1330.8333333333335 666.6666666666666 1354.1666666666667V1479.1666666666667C666.6666666666666 1502.5 685 1520.8333333333335 708.3333333333333 1520.8333333333335H1291.6666666666665C1314.9999999999998 1520.8333333333335 1333.3333333333333 1502.5 1333.3333333333333 1479.1666666666667V1354.1666666666667C1333.3333333333333 1330.8333333333335 1314.9999999999998 1312.5 1291.6666666666665 1312.5zM1333.3333333333333 1062.5V1145.8333333333335C1333.3333333333333 1169.1666666666665 1314.9999999999998 1187.5 1291.6666666666665 1187.5H1208.3333333333333C1185 1187.5 1166.6666666666665 1169.1666666666665 1166.6666666666665 1145.8333333333335V1062.5C1166.6666666666665 1039.1666666666667 1185 1020.8333333333334 1208.3333333333333 1020.8333333333334H1291.6666666666665C1314.9999999999998 1020.8333333333334 1333.3333333333333 1039.1666666666667 1333.3333333333333 1062.5zM833.3333333333333 1062.5V1145.8333333333335C833.3333333333333 1169.1666666666665 814.9999999999999 1187.5 791.6666666666666 1187.5H708.3333333333333C685 1187.5 666.6666666666666 1169.1666666666665 666.6666666666666 1145.8333333333335V1062.5C666.6666666666666 1039.1666666666667 685 1020.8333333333334 708.3333333333333 1020.8333333333334H791.6666666666666C814.9999999999999 1020.8333333333334 833.3333333333333 1039.1666666666667 833.3333333333333 1062.5zM1083.3333333333333 1062.5V1145.8333333333335C1083.3333333333333 1169.1666666666665 1064.9999999999998 1187.5 1041.6666666666665 1187.5H958.3333333333331C935 1187.5 916.6666666666666 1169.1666666666665 916.6666666666666 1145.8333333333335V1062.5C916.6666666666666 1039.1666666666667 935 1020.8333333333334 958.3333333333331 1020.8333333333334H1041.6666666666665C1064.9999999999998 1020.8333333333334 1083.3333333333333 1039.1666666666667 1083.3333333333333 1062.5zM1333.3333333333333 791.6666666666667V875C1333.3333333333333 898.3333333333333 1314.9999999999998 916.6666666666669 1291.6666666666665 916.6666666666669H1208.3333333333333C1185 916.6666666666669 1166.6666666666665 898.3333333333333 1166.6666666666665 875V791.6666666666667C1166.6666666666665 768.3333333333335 1185 750 1208.3333333333333 750H1291.6666666666665C1314.9999999999998 750 1333.3333333333333 768.3333333333335 1333.3333333333333 791.6666666666667zM833.3333333333333 791.6666666666667V875C833.3333333333333 898.3333333333333 814.9999999999999 916.6666666666669 791.6666666666666 916.6666666666669H708.3333333333333C685 916.6666666666669 666.6666666666666 898.3333333333333 666.6666666666666 875V791.6666666666667C666.6666666666666 768.3333333333335 685 750 708.3333333333333 750H791.6666666666666C814.9999999999999 750 833.3333333333333 768.3333333333335 833.3333333333333 791.6666666666667zM1083.3333333333333 791.6666666666667V875C1083.3333333333333 898.3333333333333 1064.9999999999998 916.6666666666669 1041.6666666666665 916.6666666666669H958.3333333333331C935 916.6666666666669 916.6666666666666 898.3333333333333 916.6666666666666 875V791.6666666666667C916.6666666666666 768.3333333333335 935 750 958.3333333333331 750H1041.6666666666665C1064.9999999999998 750 1083.3333333333333 768.3333333333335 1083.3333333333333 791.6666666666667zM1333.3333333333333 520.8333333333335V604.1666666666667C1333.3333333333333 627.5000000000002 1314.9999999999998 645.8333333333335 1291.6666666666665 645.8333333333335H1208.3333333333333C1185 645.8333333333335 1166.6666666666665 627.5000000000002 1166.6666666666665 604.1666666666667V520.8333333333335C1166.6666666666665 497.5 1185 479.1666666666667 1208.3333333333333 479.1666666666667H1291.6666666666665C1314.9999999999998 479.1666666666667 1333.3333333333333 497.5 1333.3333333333333 520.8333333333335zM1083.3333333333333 520.8333333333335V604.1666666666667C1083.3333333333333 627.5000000000002 1064.9999999999998 645.8333333333335 1041.6666666666665 645.8333333333335H708.3333333333333C685 645.8333333333335 666.6666666666666 627.5000000000002 666.6666666666666 604.1666666666667V520.8333333333335C666.6666666666666 497.5 685 479.1666666666667 708.3333333333333 479.1666666666667H1041.6666666666665C1064.9999999999998 479.1666666666667 1083.3333333333333 497.5 1083.3333333333333 520.8333333333335zM1604.1666666666665 375V1625C1604.1666666666665 1728.3333333333335 1519.9999999999998 1812.5 1416.6666666666665 1812.5H583.3333333333333C479.9999999999999 1812.5 395.8333333333333 1728.3333333333335 395.8333333333333 1625V375C395.8333333333333 271.666666666667 479.9999999999999 187.5 583.3333333333333 187.5H1416.6666666666665C1519.9999999999998 187.5 1604.1666666666665 271.666666666667 1604.1666666666665 375zM1416.6666666666665 1687.5C1450.8333333333333 1687.5 1479.1666666666665 1659.1666666666667 1479.1666666666665 1625V375C1479.1666666666665 340.8333333333335 1450.8333333333333 312.5 1416.6666666666665 312.5H583.3333333333333C549.1666666666666 312.5 520.8333333333333 340.8333333333335 520.8333333333333 375V1625C520.8333333333333 1659.1666666666667 549.1666666666666 1687.5 583.3333333333333 1687.5H1416.6666666666665z" />
    <glyph glyph-name="calendar-minus"
      unicode="&#xF12D;"
      horiz-adv-x="2000" d="M1416.6666666666665 1604.1666666666667H1312.5V1708.3333333333335A62.5 62.5 0 0 1 1187.5 1708.3333333333335V1604.1666666666667H812.5V1708.3333333333335A62.5 62.5 0 0 1 687.5 1708.3333333333335V1604.1666666666667H583.3333333333333A229.1666666666667 229.1666666666667 0 0 1 354.1666666666667 1375V458.3333333333335A229.1666666666667 229.1666666666667 0 0 1 583.3333333333333 229.1666666666668H1416.6666666666665A229.1666666666667 229.1666666666667 0 0 1 1645.8333333333333 458.3333333333335V1375A229.1666666666667 229.1666666666667 0 0 1 1416.6666666666665 1604.1666666666667zM583.3333333333333 1479.1666666666667H687.5V1375A62.5 62.5 0 0 1 812.5 1375V1479.1666666666667H1187.5V1375A62.5 62.5 0 0 1 1312.5 1375V1479.1666666666667H1416.6666666666665A104.1666666666667 104.1666666666667 0 0 0 1520.8333333333333 1375V1145.8333333333335H479.1666666666666V1375A104.1666666666667 104.1666666666667 0 0 0 583.3333333333333 1479.1666666666667zM1416.6666666666665 354.1666666666668H583.3333333333333A104.1666666666667 104.1666666666667 0 0 0 479.1666666666666 458.3333333333335V1020.8333333333334H1520.8333333333333V458.3333333333335A104.1666666666667 104.1666666666667 0 0 0 1416.6666666666665 354.1666666666668zM1166.6666666666665 725H833.3333333333333A62.5 62.5 0 0 1 833.3333333333333 600H1166.6666666666665A62.5 62.5 0 0 1 1166.6666666666665 725z" />
    <glyph glyph-name="calendar-plus"
      unicode="&#xF12E;"
      horiz-adv-x="2000" d="M1416.6666666666665 1604.1666666666667H1312.5V1708.3333333333335A62.5 62.5 0 0 1 1187.5 1708.3333333333335V1604.1666666666667H812.5V1708.3333333333335A62.5 62.5 0 0 1 687.5 1708.3333333333335V1604.1666666666667H583.3333333333333A229.1666666666667 229.1666666666667 0 0 1 354.1666666666667 1375V458.3333333333335A229.1666666666667 229.1666666666667 0 0 1 583.3333333333333 229.1666666666668H1416.6666666666665A229.1666666666667 229.1666666666667 0 0 1 1645.8333333333333 458.3333333333335V1375A229.1666666666667 229.1666666666667 0 0 1 1416.6666666666665 1604.1666666666667zM583.3333333333333 1479.1666666666667H687.5V1375A62.5 62.5 0 0 1 812.5 1375V1479.1666666666667H1187.5V1375A62.5 62.5 0 0 1 1312.5 1375V1479.1666666666667H1416.6666666666665A104.1666666666667 104.1666666666667 0 0 0 1520.8333333333333 1375V1145.8333333333335H479.1666666666666V1375A104.1666666666667 104.1666666666667 0 0 0 583.3333333333333 1479.1666666666667zM1416.6666666666665 354.1666666666668H583.3333333333333A104.1666666666667 104.1666666666667 0 0 0 479.1666666666666 458.3333333333335V1020.8333333333334H1520.8333333333333V458.3333333333335A104.1666666666667 104.1666666666667 0 0 0 1416.6666666666665 354.1666666666668zM1166.6666666666665 729.1666666666667H1062.5V833.3333333333335A62.5 62.5 0 0 1 937.5 833.3333333333335V729.1666666666667H833.3333333333333A62.5 62.5 0 0 1 833.3333333333333 604.1666666666667H937.5V500A62.5 62.5 0 0 1 1062.5 500V604.1666666666667H1166.6666666666665A62.5 62.5 0 0 1 1166.6666666666665 729.1666666666667z" />
    <glyph glyph-name="calendar-times"
      unicode="&#xF12F;"
      horiz-adv-x="2000" d="M1416.6666666666665 1604.1666666666667H1312.5V1708.3333333333335A62.5 62.5 0 0 1 1187.5 1708.3333333333335V1604.1666666666667H812.5V1708.3333333333335A62.5 62.5 0 0 1 687.5 1708.3333333333335V1604.1666666666667H583.3333333333333A229.1666666666667 229.1666666666667 0 0 1 354.1666666666667 1375V458.3333333333335A229.1666666666667 229.1666666666667 0 0 1 583.3333333333333 229.1666666666668H1416.6666666666665A229.1666666666667 229.1666666666667 0 0 1 1645.8333333333333 458.3333333333335V1375A229.1666666666667 229.1666666666667 0 0 1 1416.6666666666665 1604.1666666666667zM583.3333333333333 1479.1666666666667H687.5V1375A62.5 62.5 0 0 1 812.5 1375V1479.1666666666667H1187.5V1375A62.5 62.5 0 0 1 1312.5 1375V1479.1666666666667H1416.6666666666665A104.1666666666667 104.1666666666667 0 0 0 1520.8333333333333 1375V1145.8333333333335H479.1666666666666V1375A104.1666666666667 104.1666666666667 0 0 0 583.3333333333333 1479.1666666666667zM1416.6666666666665 354.1666666666668H583.3333333333333A104.1666666666667 104.1666666666667 0 0 0 479.1666666666666 458.3333333333335V1020.8333333333334H1520.8333333333333V458.3333333333335A104.1666666666667 104.1666666666667 0 0 0 1416.6666666666665 354.1666666666668zM1161.6666666666665 828.3333333333333A61.6666666666667 61.6666666666667 0 0 1 1073.3333333333333 828.3333333333333L999.9999999999998 755L926.6666666666664 828.3333333333333A62.5 62.5 0 0 1 838.333333333333 740L911.6666666666664 666.6666666666667L838.333333333333 593.3333333333335A61.6666666666667 61.6666666666667 0 0 1 838.333333333333 505.0000000000002A59.1666666666667 59.1666666666667 0 0 1 882.4999999999997 486.666666666667A61.6666666666667 61.6666666666667 0 0 1 926.6666666666662 505.0000000000002L999.9999999999995 578.3333333333335L1073.333333333333 505.0000000000002A61.6666666666667 61.6666666666667 0 0 1 1117.4999999999995 486.666666666667A59.1666666666667 59.1666666666667 0 0 1 1161.6666666666663 505.0000000000002A61.6666666666667 61.6666666666667 0 0 1 1161.6666666666663 593.3333333333335L1088.3333333333333 666.6666666666667L1161.6666666666667 740.0000000000002A61.6666666666667 61.6666666666667 0 0 1 1161.6666666666665 828.3333333333333z" />
    <glyph glyph-name="calendar"
      unicode="&#xF130;"
      horiz-adv-x="2000" d="M1416.6666666666665 1645.8333333333335H1312.5V1750A62.5 62.5 0 0 1 1187.5 1750V1645.8333333333335H812.5V1750A62.5 62.5 0 0 1 687.5 1750V1645.8333333333335H583.3333333333333A229.1666666666667 229.1666666666667 0 0 1 354.1666666666667 1416.6666666666667V500A229.1666666666667 229.1666666666667 0 0 1 583.3333333333333 270.8333333333335H1416.6666666666665A229.1666666666667 229.1666666666667 0 0 1 1645.8333333333333 500V1416.6666666666667A229.1666666666667 229.1666666666667 0 0 1 1416.6666666666665 1645.8333333333335zM583.3333333333333 1520.8333333333335H687.5V1416.6666666666667A62.5 62.5 0 0 1 812.5 1416.6666666666667V1520.8333333333335H1187.5V1416.6666666666667A62.5 62.5 0 0 1 1312.5 1416.6666666666667V1520.8333333333335H1416.6666666666665A104.1666666666667 104.1666666666667 0 0 0 1520.8333333333333 1416.6666666666667V1187.5H479.1666666666666V1416.6666666666667A104.1666666666667 104.1666666666667 0 0 0 583.3333333333333 1520.8333333333335zM1416.6666666666665 395.8333333333335H583.3333333333333A104.1666666666667 104.1666666666667 0 0 0 479.1666666666666 500V1062.5H1520.8333333333333V500A104.1666666666667 104.1666666666667 0 0 0 1416.6666666666665 395.8333333333335z" />
    <glyph glyph-name="camera"
      unicode="&#xF131;"
      horiz-adv-x="2000" d="M1500 395.8333333333335H500A229.1666666666667 229.1666666666667 0 0 0 270.8333333333333 625V1125A229.1666666666667 229.1666666666667 0 0 0 500 1354.1666666666667H549.9999999999999L648.3333333333334 1500A230 230 0 0 0 839.1666666666666 1601.6666666666667H1160.8333333333333A230 230 0 0 0 1351.6666666666665 1500L1449.9999999999998 1354.1666666666667H1500A229.1666666666667 229.1666666666667 0 0 0 1729.1666666666665 1125V625A229.1666666666667 229.1666666666667 0 0 0 1500 395.8333333333335zM500 1229.1666666666667A104.1666666666667 104.1666666666667 0 0 1 395.8333333333333 1125V625A104.1666666666667 104.1666666666667 0 0 1 500 520.8333333333335H1500A104.1666666666667 104.1666666666667 0 0 1 1604.1666666666665 625V1125A104.1666666666667 104.1666666666667 0 0 1 1500 1229.1666666666667H1416.6666666666665A62.5 62.5 0 0 0 1364.9999999999998 1256.6666666666667L1250 1432.5A103.3333333333333 103.3333333333333 0 0 1 1166.6666666666665 1479.1666666666667H839.1666666666666A103.3333333333333 103.3333333333333 0 0 1 755.8333333333333 1432.5L635 1256.6666666666667A62.5 62.5 0 0 0 583.3333333333333 1229.1666666666667zM1000 645.8333333333335A270.8333333333333 270.8333333333333 0 1 0 1270.8333333333333 916.6666666666669A271.6666666666667 271.6666666666667 0 0 0 1000 645.8333333333335zM1000 1062.5A145.8333333333334 145.8333333333334 0 1 1 1145.8333333333333 916.6666666666669A146.6666666666666 146.6666666666666 0 0 1 1000 1062.5z" />
    <glyph glyph-name="car"
      unicode="&#xF132;"
      horiz-adv-x="2000" d="M1648.3333333333333 1213.3333333333335L1495 1630A145.8333333333334 145.8333333333334 0 0 1 1358.3333333333333 1729.1666666666667H641.6666666666666A145.8333333333334 145.8333333333334 0 0 1 504.9999999999999 1633.3333333333333L351.6666666666667 1216.6666666666665A146.6666666666666 146.6666666666666 0 0 1 268.3333333333333 1086.6666666666665V711.6666666666667A144.1666666666667 144.1666666666667 0 0 1 333.3333333333333 588.3333333333333S333.3333333333333 583.3333333333335 333.3333333333333 583.3333333333335V416.6666666666668A83.3333333333333 83.3333333333333 0 0 1 416.6666666666667 333.3333333333335H500A83.3333333333333 83.3333333333333 0 0 1 583.3333333333333 416.6666666666668V562.5H1416.6666666666665V416.6666666666668A83.3333333333333 83.3333333333333 0 0 1 1500 333.3333333333335H1583.3333333333333A83.3333333333333 83.3333333333333 0 0 1 1666.6666666666665 416.6666666666668V583.3333333333335S1666.6666666666665 583.3333333333335 1666.6666666666665 588.3333333333333A144.1666666666667 144.1666666666667 0 0 1 1730 708.3333333333333V1083.3333333333335A146.6666666666666 146.6666666666666 0 0 1 1648.3333333333333 1213.3333333333335zM1604.1666666666665 708.3333333333335A20.8333333333333 20.8333333333333 0 0 0 1583.3333333333333 687.5H416.6666666666667A20.8333333333333 20.8333333333333 0 0 0 395.8333333333333 708.3333333333335V1083.3333333333335A20.8333333333333 20.8333333333333 0 0 0 416.6666666666667 1104.1666666666667H1583.3333333333333A20.8333333333333 20.8333333333333 0 0 0 1604.1666666666665 1083.3333333333335zM622.5 1590.8333333333335A20.8333333333333 20.8333333333333 0 0 0 641.6666666666666 1604.1666666666667H1358.3333333333333A20.8333333333333 20.8333333333333 0 0 0 1377.5 1590.8333333333335L1494.1666666666665 1270.8333333333335H505.8333333333333zM541.6666666666666 895.8333333333335A125 125 0 0 1 791.6666666666666 895.8333333333335A125 125 0 0 1 541.6666666666666 895.8333333333335M1208.3333333333333 895.8333333333335A125 125 0 0 1 1458.3333333333333 895.8333333333335A125 125 0 0 1 1208.3333333333333 895.8333333333335" />
    <glyph glyph-name="caret-down"
      unicode="&#xF133;"
      horiz-adv-x="2000" d="M1000 604.1666666666667A61.6666666666667 61.6666666666667 0 0 0 950 629.1666666666667L450 1295.8333333333335A62.5 62.5 0 0 0 444.1666666666667 1361.6666666666667A63.3333333333333 63.3333333333333 0 0 0 500 1395.8333333333335H1500A63.3333333333333 63.3333333333333 0 0 0 1555.8333333333335 1361.6666666666667A62.5 62.5 0 0 0 1550 1295.8333333333335L1050 629.1666666666667A61.6666666666667 61.6666666666667 0 0 0 1000 604.1666666666667zM625 1270.8333333333335L1000 770.8333333333335L1375 1270.8333333333335z" />
    <glyph glyph-name="caret-left"
      unicode="&#xF134;"
      horiz-adv-x="2000" d="M1333.3333333333333 437.5A61.6666666666667 61.6666666666667 0 0 0 1295.8333333333333 450L629.1666666666667 950A62.5 62.5 0 0 0 629.1666666666667 1050L1295.8333333333333 1549.9999999999998A62.5 62.5 0 0 0 1361.6666666666665 1555.8333333333333A63.3333333333333 63.3333333333333 0 0 0 1395.8333333333333 1500V500A63.3333333333333 63.3333333333333 0 0 0 1361.6666666666665 444.1666666666665A70 70 0 0 0 1333.3333333333333 437.5zM770.8333333333333 1000L1270.8333333333333 625V1375z" />
    <glyph glyph-name="caret-right"
      unicode="&#xF135;"
      horiz-adv-x="2000" d="M666.6666666666666 437.5A63.3333333333333 63.3333333333333 0 0 0 639.1666666666666 444.1666666666665A62.5 62.5 0 0 0 604.1666666666666 500V1500A62.5 62.5 0 0 0 639.1666666666666 1555.8333333333335A61.6666666666667 61.6666666666667 0 0 0 704.1666666666665 1550L1370.8333333333333 1050A62.5 62.5 0 0 0 1370.8333333333333 950L704.1666666666665 450A61.6666666666667 61.6666666666667 0 0 0 666.6666666666666 437.5zM729.1666666666666 1375V625L1229.1666666666665 1000z" />
    <glyph glyph-name="caret-up"
      unicode="&#xF136;"
      horiz-adv-x="2000" d="M1500 604.1666666666667H500A63.3333333333333 63.3333333333333 0 0 0 444.1666666666667 638.3333333333335A62.5 62.5 0 0 0 450 704.1666666666667L950 1370.8333333333333A64.1666666666667 64.1666666666667 0 0 0 1050 1370.8333333333333L1550 704.1666666666667A62.5 62.5 0 0 0 1555.8333333333335 638.3333333333335A63.3333333333333 63.3333333333333 0 0 0 1500 604.1666666666667zM625 729.1666666666667H1375L1000 1229.1666666666667z" />
    <glyph glyph-name="cart-plus"
      unicode="&#xF137;"
      horiz-adv-x="2000" d="M865.8333333333334 1041.6666666666667C865.8333333333334 1075.8333333333335 894.1666666666666 1104.1666666666667 928.3333333333334 1104.1666666666667H1032.5V1208.3333333333335C1032.5 1242.5 1060.8333333333333 1270.8333333333335 1095 1270.8333333333335S1157.5 1242.5 1157.5 1208.3333333333335V1104.1666666666667H1261.6666666666667C1295.8333333333333 1104.1666666666667 1324.1666666666667 1075.8333333333335 1324.1666666666667 1041.6666666666667S1295.8333333333333 979.1666666666669 1261.6666666666667 979.1666666666669H1157.5V875C1157.5 840.8333333333335 1129.1666666666667 812.5 1095 812.5S1032.5 840.8333333333335 1032.5 875V979.1666666666669H928.3333333333334C894.1666666666666 979.1666666666669 865.8333333333334 1007.5 865.8333333333334 1041.6666666666667zM937.5 437.5C937.5 368.3333333333335 881.6666666666666 312.5 812.5 312.5S687.5 368.3333333333335 687.5 437.5S743.3333333333333 562.5 812.5 562.5S937.5 506.6666666666665 937.5 437.5zM1479.1666666666665 437.5C1479.1666666666665 368.3333333333335 1423.333333333333 312.5 1354.1666666666665 312.5S1229.1666666666665 368.3333333333335 1229.1666666666665 437.5S1285 562.5 1354.1666666666665 562.5S1479.1666666666665 506.6666666666665 1479.1666666666665 437.5zM1727.5 1360L1560.8333333333333 693.3333333333335C1554.1666666666667 665.8333333333335 1529.1666666666667 645.8333333333335 1500 645.8333333333335H666.6666666666666C636.6666666666666 645.8333333333335 610.8333333333333 667.5 605 697.5L447.5 1562.5H333.3333333333333C299.1666666666667 1562.5 270.8333333333333 1590.8333333333335 270.8333333333333 1625S299.1666666666667 1687.5 333.3333333333333 1687.5H500C530 1687.5 555.8333333333333 1665.8333333333335 561.6666666666666 1635.8333333333335L597.5 1437.5H1666.6666666666665C1685.8333333333333 1437.5 1704.1666666666665 1428.3333333333335 1715.8333333333333 1413.3333333333335C1727.5 1398.3333333333335 1731.6666666666667 1378.3333333333335 1727.5 1360zM1586.6666666666665 1312.5H620L718.3333333333334 770.8333333333335H1450.8333333333333L1585.8333333333333 1312.5z" />
    <glyph glyph-name="chart-bar"
      unicode="&#xF138;"
      horiz-adv-x="2000" d="M375 312.5A63.3333333333333 63.3333333333333 0 0 0 312.5 375V1625A62.5 62.5 0 0 0 437.5 1625V375A63.3333333333333 63.3333333333333 0 0 0 375 312.5zM1625 312.5H375A62.5 62.5 0 0 0 375 437.5H1625A62.5 62.5 0 0 0 1625 312.5zM666.6666666666666 604.1666666666667A63.3333333333333 63.3333333333333 0 0 0 604.1666666666666 666.6666666666667V1000A62.5 62.5 0 0 0 729.1666666666666 1000V666.6666666666667A63.3333333333333 63.3333333333333 0 0 0 666.6666666666666 604.1666666666667zM958.3333333333331 604.1666666666667A63.3333333333333 63.3333333333333 0 0 0 895.8333333333333 666.6666666666667V1333.3333333333335A62.5 62.5 0 0 0 1020.8333333333331 1333.3333333333335V666.6666666666667A63.3333333333333 63.3333333333333 0 0 0 958.3333333333331 604.1666666666667zM1250 604.1666666666667A63.3333333333333 63.3333333333333 0 0 0 1187.5 666.6666666666667V1000A62.5 62.5 0 0 0 1312.5 1000V666.6666666666667A63.3333333333333 63.3333333333333 0 0 0 1250 604.1666666666667zM1541.6666666666665 604.1666666666667A63.3333333333333 63.3333333333333 0 0 0 1479.1666666666665 666.6666666666667V1333.3333333333335A62.5 62.5 0 0 0 1604.1666666666665 1333.3333333333335V666.6666666666667A63.3333333333333 63.3333333333333 0 0 0 1541.6666666666665 604.1666666666667z" />
    <glyph glyph-name="chart-line"
      unicode="&#xF139;"
      horiz-adv-x="2000" d="M375 312.5A63.3333333333333 63.3333333333333 0 0 0 312.5 375V1625A62.5 62.5 0 0 0 437.5 1625V375A63.3333333333333 63.3333333333333 0 0 0 375 312.5zM1625 312.5H375A62.5 62.5 0 0 0 375 437.5H1625A62.5 62.5 0 0 0 1625 312.5zM1166.6666666666665 770.8333333333335A61.6666666666667 61.6666666666667 0 0 0 1122.5 789.1666666666667L916.6666666666666 995L710.8333333333333 789.1666666666667A62.5 62.5 0 0 0 622.4999999999999 877.5000000000002L872.4999999999999 1127.5A62.5 62.5 0 0 0 960.8333333333331 1127.5L1166.6666666666665 921.6666666666669L1455.8333333333333 1210.8333333333335A62.5 62.5 0 0 0 1544.1666666666663 1122.5L1210.833333333333 789.1666666666667A61.6666666666667 61.6666666666667 0 0 0 1166.6666666666665 770.8333333333335zM1541.6666666666665 846.6666666666667A63.3333333333333 63.3333333333333 0 0 0 1479.1666666666665 909.1666666666669V1145.8333333333335H1250A62.5 62.5 0 0 0 1250 1270.8333333333335H1541.6666666666665A63.3333333333333 63.3333333333333 0 0 0 1604.1666666666665 1208.3333333333335V909.1666666666669A63.3333333333333 63.3333333333333 0 0 0 1541.6666666666665 846.6666666666667z" />
    <glyph glyph-name="chart-pie"
      unicode="&#xF13A;"
      horiz-adv-x="2000" d="M1104.1666666666665 1600.8333333333335V1625A63.3333333333333 63.3333333333333 0 0 1 1041.6666666666665 1687.5A733.3333333333333 733.3333333333333 0 0 1 407.5 593.3333333333335H407.5A62.5 62.5 0 0 1 461.6666666666666 562.5A61.6666666666667 61.6666666666667 0 0 1 492.5 570.8333333333335L516.6666666666666 583.3333333333335A645.0000000000001 645.0000000000001 0 1 1 1104.1666666666665 1600zM979.1666666666666 1559.1666666666667V994.1666666666669L488.3333333333333 712.5000000000002A606.6666666666666 606.6666666666666 0 0 0 979.1666666666666 1559.1666666666667zM1041.6666666666665 437.5A522.5 522.5 0 0 0 625 646.6666666666665L1072.5 904.1666666666666A60.8333333333333 60.8333333333333 0 0 1 1104.1666666666667 958.3333333333331V1475A520.8333333333333 520.8333333333333 0 0 0 1041.6666666666667 437.5z" />
    <glyph glyph-name="check-circle"
      unicode="&#xF13B;"
      horiz-adv-x="2000" d="M875 729.1666666666667A61.6666666666667 61.6666666666667 0 0 0 833.3333333333333 750L583.3333333333333 1000A62.5 62.5 0 0 0 666.6666666666666 1083.3333333333335L872.5 877.5L1583.3333333333333 1583.3333333333335A62.5 62.5 0 0 0 1666.6666666666665 1500L916.6666666666666 750A61.6666666666667 61.6666666666667 0 0 0 875 729.1666666666667zM1000 250A749.9999999999999 749.9999999999999 0 0 0 344.1666666666667 638.3333333333335A722.4999999999999 722.4999999999999 0 0 0 255 922.5A749.9999999999999 749.9999999999999 0 0 0 638.3333333333333 1656.6666666666667A722.4999999999999 722.4999999999999 0 0 0 922.5 1745.8333333333335A738.3333333333333 738.3333333333333 0 0 0 1218.3333333333333 1717.5A62.5 62.5 0 1 0 1182.5 1598.3333333333335A634.9999999999999 634.9999999999999 0 0 1 932.5 1621.6666666666667A619.1666666666666 619.1666666666666 0 0 1 695.8333333333334 1547.5A624.9999999999999 624.9999999999999 0 0 1 512.5000000000001 1394.166666666667A618.3333333333333 618.3333333333333 0 0 1 375.8333333333335 935.0000000000002A619.1666666666666 619.1666666666666 0 0 1 450.0000000000001 698.3333333333337A624.9999999999999 624.9999999999999 0 0 1 603.3333333333334 515.0000000000005A618.3333333333333 618.3333333333333 0 0 1 1062.5 378.3333333333337A619.1666666666666 619.1666666666666 0 0 1 1299.1666666666665 452.5000000000005A624.9999999999999 624.9999999999999 0 0 1 1482.4999999999998 605.8333333333337A618.3333333333333 618.3333333333333 0 0 1 1619.1666666666665 1065.0000000000005A62.5 62.5 0 1 0 1750 1077.5A749.9999999999999 749.9999999999999 0 0 0 1365.8333333333333 343.3333333333333A722.4999999999999 722.4999999999999 0 0 0 1077.5 250C1051.6666666666665 250 1025 250 1000 250z" />
    <glyph glyph-name="check-square"
      unicode="&#xF13C;"
      horiz-adv-x="2000" d="M1500 270.8333333333335H500A229.1666666666667 229.1666666666667 0 0 0 270.8333333333333 500V1500A229.1666666666667 229.1666666666667 0 0 0 500 1729.1666666666667H1238.3333333333333A62.5 62.5 0 0 0 1238.3333333333333 1604.1666666666667H500A104.1666666666667 104.1666666666667 0 0 1 395.8333333333333 1500V500A104.1666666666667 104.1666666666667 0 0 1 500 395.8333333333335H1500A104.1666666666667 104.1666666666667 0 0 1 1604.1666666666665 500V1142.5A62.5 62.5 0 0 0 1729.1666666666665 1142.5V500A229.1666666666667 229.1666666666667 0 0 0 1500 270.8333333333335zM875 729.1666666666667A61.6666666666667 61.6666666666667 0 0 0 833.3333333333333 750L583.3333333333333 1000A62.5 62.5 0 0 0 666.6666666666666 1083.3333333333335L872.5 877.5L1583.3333333333333 1583.3333333333335A62.5 62.5 0 0 0 1666.6666666666665 1500L916.6666666666666 750A61.6666666666667 61.6666666666667 0 0 0 875 729.1666666666667z" />
    <glyph glyph-name="check"
      unicode="&#xF13D;"
      horiz-adv-x="2000" d="M750 479.1666666666667A61.6666666666667 61.6666666666667 0 0 0 705.8333333333334 500L289.1666666666667 916.6666666666669A62.5 62.5 0 1 0 377.5 1000L750 630L1622.4999999999998 1500A62.5 62.5 0 0 0 1710.8333333333333 1416.6666666666667L794.1666666666667 500A61.6666666666667 61.6666666666667 0 0 0 750 479.1666666666667z" />
    <glyph glyph-name="chevron-circle-down"
      unicode="&#xF13E;"
      horiz-adv-x="2000" d="M1000 250A749.9999999999999 749.9999999999999 0 1 0 1750 1000A749.9999999999999 749.9999999999999 0 0 0 1000 250zM1000 1625A624.9999999999999 624.9999999999999 0 1 1 1625 1000A624.9999999999999 624.9999999999999 0 0 1 1000 1625zM1000 770.8333333333335A61.6666666666667 61.6666666666667 0 0 0 955.8333333333334 789.1666666666667L622.5 1122.5A62.5 62.5 0 0 0 710.8333333333333 1210.8333333333335L1000 921.6666666666669L1289.1666666666667 1210.8333333333335A62.5 62.5 0 0 0 1377.5 1122.5L1044.1666666666667 789.1666666666667A61.6666666666667 61.6666666666667 0 0 0 1000 770.8333333333335z" />
    <glyph glyph-name="chevron-circle-left"
      unicode="&#xF13F;"
      horiz-adv-x="2000" d="M1000 250A749.9999999999999 749.9999999999999 0 1 0 1750 1000A749.9999999999999 749.9999999999999 0 0 0 1000 250zM1000 1625A624.9999999999999 624.9999999999999 0 1 1 1625 1000A624.9999999999999 624.9999999999999 0 0 1 1000 1625zM1166.6666666666665 604.1666666666667A61.6666666666667 61.6666666666667 0 0 0 1122.5 622.5L789.1666666666666 955.8333333333331A62.5 62.5 0 0 0 789.1666666666666 1044.1666666666665L1122.5 1377.5A62.5 62.5 0 0 0 1210.8333333333333 1289.1666666666665L921.6666666666666 1000L1210.8333333333333 710.8333333333333A62.5 62.5 0 0 0 1210.8333333333333 622.5A61.6666666666667 61.6666666666667 0 0 0 1166.6666666666665 604.1666666666667z" />
    <glyph glyph-name="chevron-circle-right"
      unicode="&#xF140;"
      horiz-adv-x="2000" d="M1000 250A749.9999999999999 749.9999999999999 0 1 0 1750 1000A749.9999999999999 749.9999999999999 0 0 0 1000 250zM1000 1625A624.9999999999999 624.9999999999999 0 1 1 1625 1000A624.9999999999999 624.9999999999999 0 0 1 1000 1625zM833.3333333333333 604.1666666666667A61.6666666666667 61.6666666666667 0 0 0 789.1666666666666 622.5A62.5 62.5 0 0 0 789.1666666666666 710.8333333333333L1078.3333333333333 1000L789.1666666666666 1289.1666666666667A62.5 62.5 0 0 0 877.5 1377.5L1210.8333333333333 1044.166666666667A62.5 62.5 0 0 0 1210.8333333333333 955.8333333333334L877.5 622.5A61.6666666666667 61.6666666666667 0 0 0 833.3333333333333 604.1666666666667z" />
    <glyph glyph-name="chevron-circle-up"
      unicode="&#xF141;"
      horiz-adv-x="2000" d="M1000 250A749.9999999999999 749.9999999999999 0 1 0 1750 1000A749.9999999999999 749.9999999999999 0 0 0 1000 250zM1000 1625A624.9999999999999 624.9999999999999 0 1 1 1625 1000A624.9999999999999 624.9999999999999 0 0 1 1000 1625zM1333.3333333333333 770.8333333333335A61.6666666666667 61.6666666666667 0 0 0 1289.1666666666667 789.1666666666667L1000 1078.3333333333335L710.8333333333333 789.1666666666667A62.5 62.5 0 0 0 622.4999999999999 877.5000000000002L955.8333333333331 1210.8333333333335A62.5 62.5 0 0 0 1044.1666666666665 1210.8333333333335L1377.5 877.5000000000002A62.5 62.5 0 0 0 1377.5 789.1666666666667A61.6666666666667 61.6666666666667 0 0 0 1333.3333333333333 770.8333333333335z" />
    <glyph glyph-name="chevron-down"
      unicode="&#xF142;"
      horiz-adv-x="2000" d="M1000 729.1666666666667A61.6666666666667 61.6666666666667 0 0 0 955.8333333333334 747.5000000000002L539.1666666666667 1164.1666666666667A62.5 62.5 0 0 0 627.5 1250L1000 880L1372.4999999999998 1250A62.5 62.5 0 0 0 1460.8333333333333 1166.6666666666667L1044.1666666666667 750A61.6666666666667 61.6666666666667 0 0 0 1000 729.1666666666667z" />
    <glyph glyph-name="chevron-left"
      unicode="&#xF143;"
      horiz-adv-x="2000" d="M1166.6666666666665 520.8333333333335A61.6666666666667 61.6666666666667 0 0 0 1122.5 539.1666666666667L705.8333333333334 955.8333333333331A62.5 62.5 0 0 0 705.8333333333334 1044.1666666666665L1122.5 1460.8333333333333A62.5 62.5 0 0 0 1210.8333333333333 1372.5L838.3333333333334 1000L1210.8333333333333 627.5000000000002A62.5 62.5 0 0 0 1210.8333333333333 539.166666666667A61.6666666666667 61.6666666666667 0 0 0 1166.6666666666665 520.8333333333335z" />
    <glyph glyph-name="chevron-right"
      unicode="&#xF144;"
      horiz-adv-x="2000" d="M833.3333333333333 520.8333333333335A61.6666666666667 61.6666666666667 0 0 0 789.1666666666666 539.1666666666667A62.5 62.5 0 0 0 789.1666666666666 627.4999999999998L1161.6666666666665 1000L789.1666666666666 1372.5A62.5 62.5 0 0 0 877.5 1460.8333333333333L1294.1666666666667 1044.1666666666665A62.5 62.5 0 0 0 1294.1666666666667 955.8333333333331L877.5 539.1666666666667A61.6666666666667 61.6666666666667 0 0 0 833.3333333333333 520.8333333333335z" />
    <glyph glyph-name="chevron-up"
      unicode="&#xF145;"
      horiz-adv-x="2000" d="M1416.6666666666665 729.1666666666667A61.6666666666667 61.6666666666667 0 0 0 1372.4999999999998 747.5000000000002L1000 1120L627.5 750A62.5 62.5 0 0 0 539.1666666666666 833.3333333333335L955.8333333333331 1250A62.5 62.5 0 0 0 1044.1666666666665 1250L1460.8333333333333 833.3333333333335A62.5 62.5 0 0 0 1460.8333333333333 745A61.6666666666667 61.6666666666667 0 0 0 1416.6666666666665 729.1666666666667z" />
    <glyph glyph-name="circle-fill"
      unicode="&#xF146;"
      horiz-adv-x="2000" d="M250 1000A749.9999999999999 749.9999999999999 0 0 1 1750 1000A749.9999999999999 749.9999999999999 0 0 1 250 1000" />
    <glyph glyph-name="circle-off"
      unicode="&#xF147;"
      horiz-adv-x="2000" d="M1000 250A749.9999999999999 749.9999999999999 0 1 0 1750 1000A749.9999999999999 749.9999999999999 0 0 0 1000 250zM1000 1625A624.9999999999999 624.9999999999999 0 1 1 1625 1000A624.9999999999999 624.9999999999999 0 0 1 1000 1625z" />
    <glyph glyph-name="circle-on"
      unicode="&#xF148;"
      horiz-adv-x="2000" d="M250 1000A749.9999999999999 749.9999999999999 0 0 1 1750 1000A749.9999999999999 749.9999999999999 0 0 1 250 1000" />
    <glyph glyph-name="circle"
      unicode="&#xF149;"
      horiz-adv-x="2000" d="M1000 250A749.9999999999999 749.9999999999999 0 1 0 1750 1000A749.9999999999999 749.9999999999999 0 0 0 1000 250zM1000 1625A624.9999999999999 624.9999999999999 0 1 1 1625 1000A624.9999999999999 624.9999999999999 0 0 1 1000 1625z" />
    <glyph glyph-name="clock"
      unicode="&#xF14A;"
      horiz-adv-x="2000" d="M1000 250A749.9999999999999 749.9999999999999 0 1 0 1750 1000A749.9999999999999 749.9999999999999 0 0 0 1000 250zM1000 1625A624.9999999999999 624.9999999999999 0 1 1 1625 1000A624.9999999999999 624.9999999999999 0 0 1 1000 1625zM1250 937.5H1000A63.3333333333333 63.3333333333333 0 0 0 937.5 1000V1416.6666666666667A62.5 62.5 0 0 0 1062.5 1416.6666666666667V1062.5H1250A62.5 62.5 0 0 0 1250 937.5z" />
    <glyph glyph-name="clone"
      unicode="&#xF14B;"
      horiz-adv-x="2000" d="M1166.6666666666665 604.1666666666667H500A229.1666666666667 229.1666666666667 0 0 0 270.8333333333333 833.3333333333335V1500A229.1666666666667 229.1666666666667 0 0 0 500 1729.1666666666667H1166.6666666666665A229.1666666666667 229.1666666666667 0 0 0 1395.8333333333333 1500V833.3333333333335A229.1666666666667 229.1666666666667 0 0 0 1166.6666666666665 604.1666666666667zM500 1604.1666666666667A104.1666666666667 104.1666666666667 0 0 1 395.8333333333333 1500V833.3333333333335A104.1666666666667 104.1666666666667 0 0 1 500 729.1666666666667H1166.6666666666665A104.1666666666667 104.1666666666667 0 0 1 1270.8333333333333 833.3333333333335V1500A104.1666666666667 104.1666666666667 0 0 1 1166.6666666666665 1604.1666666666667zM1500 270.8333333333335H833.3333333333333A229.1666666666667 229.1666666666667 0 0 0 604.1666666666666 500V666.6666666666667H729.1666666666666V500A104.1666666666667 104.1666666666667 0 0 1 833.3333333333333 395.8333333333335H1500A104.1666666666667 104.1666666666667 0 0 1 1604.1666666666665 500V1166.6666666666667A104.1666666666667 104.1666666666667 0 0 1 1500 1270.8333333333335H1333.3333333333333V1395.8333333333335H1500A229.1666666666667 229.1666666666667 0 0 0 1729.1666666666665 1166.6666666666667V500A229.1666666666667 229.1666666666667 0 0 0 1500 270.8333333333335z" />
    <glyph glyph-name="cloud-download"
      unicode="&#xF14C;"
      horiz-adv-x="2000" d="M1458.3333333333333 479.1666666666667A62.5 62.5 0 0 0 1458.3333333333333 604.1666666666667C1596.6666666666665 604.1666666666667 1645.8333333333333 673.3333333333335 1645.8333333333333 869.1666666666667A297.5 297.5 0 0 1 1375 1140A278.3333333333333 278.3333333333333 0 0 1 1291.6666666666665 1125A61.6666666666667 61.6666666666667 0 0 0 1208.3333333333333 1165.8333333333335A437.5 437.5 0 0 1 354.1666666666667 1035.8333333333335C354.1666666666667 767.5 366.6666666666667 604.1666666666667 541.6666666666666 604.1666666666667A62.5 62.5 0 0 0 541.6666666666666 479.1666666666667C229.1666666666667 479.1666666666667 229.1666666666667 800.8333333333333 229.1666666666667 1035.8333333333335A562.4999999999999 562.4999999999999 0 0 0 1312.5 1259.1666666666665A366.6666666666667 366.6666666666667 0 0 0 1379.1666666666667 1265A422.5 422.5 0 0 0 1775 869.1666666666667C1770.8333333333333 762.5 1770.8333333333333 479.1666666666667 1458.3333333333333 479.1666666666667zM1000 401.6666666666668A61.6666666666667 61.6666666666667 0 0 0 955.8333333333334 420L720 655.8333333333335A62.5 62.5 0 0 0 808.3333333333333 744.1666666666667L1000 552.5L1191.6666666666667 744.1666666666667A62.5 62.5 0 0 0 1280 655.8333333333335L1044.1666666666665 416.6666666666668A61.6666666666667 61.6666666666667 0 0 0 1000 401.6666666666668zM1000 401.6666666666668A62.5 62.5 0 0 0 937.5 464.1666666666667V994.1666666666669A62.5 62.5 0 0 0 1062.5 994.1666666666669V464.1666666666667A62.5 62.5 0 0 0 1000 401.6666666666668z" />
    <glyph glyph-name="cloud-upload"
      unicode="&#xF14D;"
      horiz-adv-x="2000" d="M1458.3333333333333 479.1666666666667A62.5 62.5 0 0 0 1458.3333333333333 604.1666666666667C1596.6666666666665 604.1666666666667 1645.8333333333333 673.3333333333335 1645.8333333333333 869.1666666666667A297.5 297.5 0 0 1 1375 1140A278.3333333333333 278.3333333333333 0 0 1 1291.6666666666665 1125A61.6666666666667 61.6666666666667 0 0 0 1208.3333333333333 1165.8333333333335A437.5 437.5 0 0 1 354.1666666666667 1035.8333333333335C354.1666666666667 749.1666666666667 417.5 604.1666666666667 541.6666666666666 604.1666666666667A62.5 62.5 0 0 0 541.6666666666666 479.1666666666667C333.3333333333333 479.1666666666667 229.1666666666667 666.6666666666667 229.1666666666667 1035.8333333333335A562.4999999999999 562.4999999999999 0 0 0 1312.5 1259.1666666666665A366.6666666666667 366.6666666666667 0 0 0 1379.1666666666667 1265A422.5 422.5 0 0 0 1775 869.1666666666667C1770.8333333333333 762.5 1770.8333333333333 479.1666666666667 1458.3333333333333 479.1666666666667zM1235.8333333333333 695.8333333333335A64.1666666666667 64.1666666666667 0 0 0 1191.6666666666667 714.1666666666667L1000 905.8333333333331L808.3333333333333 714.1666666666667A62.5 62.5 0 0 0 719.9999999999999 802.5000000000002L955.8333333333331 1038.3333333333335A61.6666666666667 61.6666666666667 0 0 0 1044.1666666666665 1038.3333333333335L1279.9999999999998 802.5000000000002A62.5 62.5 0 0 0 1279.9999999999998 714.1666666666667A65.8333333333333 65.8333333333333 0 0 0 1235.8333333333333 695.8333333333335zM1000 401.6666666666668A62.5 62.5 0 0 0 937.5 464.1666666666667V994.1666666666669A62.5 62.5 0 0 0 1062.5 994.1666666666669V464.1666666666667A62.5 62.5 0 0 0 1000 401.6666666666668z" />
    <glyph glyph-name="cloud"
      unicode="&#xF14E;"
      horiz-adv-x="2000" d="M1375 437.5H791.6666666666666A562.4999999999999 562.4999999999999 0 1 0 1308.3333333333333 1222.5A369.1666666666667 369.1666666666667 0 0 0 1375 1229.1666666666667A422.5 422.5 0 0 0 1770.8333333333333 833.3333333333335A395.8333333333333 395.8333333333333 0 0 0 1375 437.5zM791.6666666666666 1437.5A437.5 437.5 0 0 1 791.6666666666666 562.5H1375A271.6666666666667 271.6666666666667 0 0 1 1645.8333333333333 833.3333333333335A297.5 297.5 0 0 1 1375 1104.1666666666667A257.5 257.5 0 0 1 1291.6666666666665 1088.3333333333335A65 65 0 0 0 1243.3333333333333 1088.3333333333335A60.8333333333333 60.8333333333333 0 0 0 1212.5 1125A436.6666666666667 436.6666666666667 0 0 1 791.6666666666666 1437.5z" />
    <glyph glyph-name="code"
      unicode="&#xF14F;"
      horiz-adv-x="2000" d="M794.1666666666665 1460.8333333333335A62.5 62.5 0 0 1 705.8333333333331 1460.8333333333335L289.1666666666666 1044.166666666667A62.5 62.5 0 0 1 289.1666666666666 955.8333333333334L705.8333333333331 539.1666666666667A62.5 62.5 0 0 1 794.1666666666665 539.1666666666667A62.5 62.5 0 0 1 794.1666666666665 627.4999999999998L421.6666666666667 1000L794.1666666666665 1372.5A62.5 62.5 0 0 1 794.1666666666665 1460.8333333333335zM1710.8333333333333 1044.1666666666665L1294.1666666666667 1460.8333333333333A62.5 62.5 0 0 1 1205.8333333333333 1372.5L1578.3333333333333 1000L1205.8333333333335 627.5000000000002A62.5 62.5 0 0 1 1205.8333333333335 539.166666666667A62.5 62.5 0 0 1 1294.1666666666667 539.166666666667L1710.8333333333333 955.8333333333334A62.5 62.5 0 0 1 1710.8333333333333 1044.1666666666665z" />
    <glyph glyph-name="cog"
      unicode="&#xF150;"
      horiz-adv-x="2000" d="M1000 755.8333333333335A244.1666666666667 244.1666666666667 0 1 0 1244.1666666666665 1000A244.1666666666667 244.1666666666667 0 0 0 1000 755.8333333333335zM1000 1119.1666666666667A119.1666666666667 119.1666666666667 0 1 1 1119.1666666666665 1000A119.1666666666667 119.1666666666667 0 0 1 1000 1119.1666666666667zM1005 270.8333333333335A185 185 0 0 0 820.8333333333334 457.5000000000002A40 40 0 0 1 796.6666666666669 492.5000000000005A42.5 42.5 0 0 1 750.0000000000001 485.0000000000005A186.6666666666667 186.6666666666667 0 0 0 620.0000000000001 430.833333333334A188.3333333333333 188.3333333333333 0 0 0 488.3333333333334 483.3333333333337A185 185 0 0 0 488.3333333333334 745.0000000000005A41.6666666666667 41.6666666666667 0 0 1 500 788.3333333333335A46.6666666666667 46.6666666666667 0 0 1 459.9999999999999 811.6666666666667A189.1666666666667 189.1666666666667 0 0 0 271.6666666666667 995.0000000000002A185 185 0 0 0 457.5 1179.1666666666667A40 40 0 0 1 492.5 1203.3333333333335A42.5 42.5 0 0 1 485 1250A186.6666666666667 186.6666666666667 0 0 0 430.8333333333333 1380A183.3333333333333 183.3333333333333 0 0 0 483.3333333333333 1511.6666666666667A185 185 0 0 0 744.9999999999999 1511.6666666666667A48.3333333333333 48.3333333333333 0 0 1 790.8333333333333 1500A50 50 0 0 1 816.6666666666666 1540A189.1666666666667 189.1666666666667 0 0 0 1000 1729.1666666666667A185 185 0 0 0 1183.3333333333333 1542.5A43.3333333333333 43.3333333333333 0 0 1 1206.6666666666665 1505.8333333333333A41.6666666666667 41.6666666666667 0 0 1 1250 1515A186.6666666666667 186.6666666666667 0 0 0 1379.9999999999998 1569.1666666666667A177.5 177.5 0 0 0 1511.6666666666665 1516.6666666666667A185 185 0 0 0 1511.6666666666665 1255A48.3333333333333 48.3333333333333 0 0 1 1502.5 1209.1666666666667A50 50 0 0 1 1542.5 1183.3333333333335A189.1666666666667 189.1666666666667 0 0 0 1729.1666666666665 1000A185 185 0 0 0 1542.4999999999998 816.6666666666667A43.3333333333333 43.3333333333333 0 0 1 1505.833333333333 793.3333333333335H1505.833333333333A41.6666666666667 41.6666666666667 0 0 1 1514.9999999999995 750.0000000000002A186.6666666666667 186.6666666666667 0 0 0 1569.166666666666 620.0000000000002A183.3333333333333 183.3333333333333 0 0 0 1516.6666666666663 488.3333333333335A185 185 0 0 0 1254.9999999999995 488.3333333333335A41.6666666666667 41.6666666666667 0 0 1 1211.6666666666663 497.5A46.6666666666667 46.6666666666667 0 0 1 1188.333333333333 457.5A189.1666666666667 189.1666666666667 0 0 0 1005 270.8333333333335zM779.1666666666666 621.6666666666667A152.5 152.5 0 0 0 843.3333333333333 608.3333333333335A166.6666666666667 166.6666666666667 0 0 0 945.8333333333331 458.3333333333335A61.6666666666667 61.6666666666667 0 0 1 1004.9999999999998 395.8333333333335A63.3333333333333 63.3333333333333 0 0 1 1063.333333333333 460A171.6666666666667 171.6666666666667 0 0 0 1161.6666666666665 614.1666666666667A166.6666666666667 166.6666666666667 0 0 0 1343.333333333333 578.3333333333335A58.3333333333333 58.3333333333333 0 1 1 1426.6666666666663 661.6666666666667A166.6666666666667 166.6666666666667 0 0 0 1391.6666666666663 843.3333333333335A166.6666666666667 166.6666666666667 0 0 0 1543.3333333333328 941.6666666666669A60.8333333333333 60.8333333333333 0 0 1 1604.9999999999995 1000A62.5 62.5 0 0 1 1540.8333333333328 1058.3333333333335A175 175 0 0 0 1386.666666666666 1160A170.8333333333333 170.8333333333333 0 0 0 1422.4999999999993 1343.3333333333335A58.3333333333333 58.3333333333333 0 1 1 1339.166666666666 1426.6666666666667A166.6666666666667 166.6666666666667 0 0 0 1059.166666666666 1543.3333333333333A60.8333333333333 60.8333333333333 0 0 1 1000.8333333333328 1605A62.5 62.5 0 0 1 942.4999999999995 1540.8333333333335A175 175 0 0 0 840.8333333333328 1386.6666666666667A170.8333333333333 170.8333333333333 0 0 0 657.4999999999995 1422.5A58.3333333333333 58.3333333333333 0 1 1 574.1666666666662 1339.1666666666667A166.6666666666667 166.6666666666667 0 0 0 608.3333333333328 1157.5A166.6666666666667 166.6666666666667 0 0 0 458.3333333333329 1055A61.6666666666667 61.6666666666667 0 0 1 395.8333333333329 995.8333333333334A63.3333333333333 63.3333333333333 0 0 1 459.9999999999995 937.5A171.6666666666667 171.6666666666667 0 0 0 614.1666666666662 839.1666666666667A166.6666666666667 166.6666666666667 0 0 0 578.3333333333328 657.5000000000002A58.3333333333333 58.3333333333333 0 1 1 661.6666666666662 574.1666666666667A171.6666666666667 171.6666666666667 0 0 0 779.1666666666666 621.6666666666667zM1445.8333333333333 818.3333333333335H1445.8333333333333z" />
    <glyph glyph-name="comment"
      unicode="&#xF151;"
      horiz-adv-x="2000" d="M375 312.5A62.5 62.5 0 0 0 315 395.8333333333335L448.3333333333333 833.3333333333335A646.6666666666666 646.6666666666666 0 0 0 405 1069.1666666666667A666.6666666666666 666.6666666666666 0 0 0 456.6666666666666 1327.5A676.6666666666665 676.6666666666665 0 0 0 598.3333333333333 1537.5A652.5 652.5 0 0 0 809.1666666666665 1679.1666666666665A660 660 0 0 0 1324.9999999999998 1679.1666666666665A666.6666666666666 666.6666666666666 0 0 0 1729.1666666666665 1069.1666666666665A666.6666666666666 666.6666666666666 0 0 0 1535 600.8333333333333A676.6666666666665 676.6666666666665 0 0 0 1325 459.1666666666665A666.6666666666666 666.6666666666666 0 0 0 830.8333333333335 450.833333333333L393.3333333333335 317.4999999999998A69.1666666666667 69.1666666666667 0 0 0 375 312.5zM1066.6666666666667 1604.1666666666667A540.8333333333333 540.8333333333333 0 0 1 571.6666666666666 1275.8333333333335A545.8333333333331 545.8333333333331 0 0 1 571.6666666666666 859.1666666666667A62.5 62.5 0 0 0 571.6666666666666 816.6666666666667L469.1666666666666 469.1666666666667L815 574.1666666666667A62.5 62.5 0 0 0 857.5 574.1666666666667A543.3333333333333 543.3333333333333 0 0 1 1274.1666666666667 574.1666666666667A536.6666666666666 536.6666666666666 0 0 1 1560 1278.3333333333335A537.5 537.5 0 0 1 1066.6666666666667 1604.1666666666667z" />
    <glyph glyph-name="comments"
      unicode="&#xF152;"
      horiz-adv-x="2000" d="M354.1666666666667 557.5000000000002A62.5 62.5 0 0 0 294.1666666666667 640.8333333333335L398.3333333333333 984.166666666667A553.3333333333333 553.3333333333333 0 0 0 365 1166.6666666666667A530 530 0 0 0 407.5 1375.8333333333335A540 540 0 0 0 1285 1550.8333333333335A555 555 0 0 0 1400 1379.1666666666667A538.3333333333333 538.3333333333333 0 0 0 1400 962.5000000000002A555 555 0 0 0 1285 790.8333333333335A540 540 0 0 0 715.8333333333333 666.6666666666667L372.5 560A69.1666666666667 69.1666666666667 0 0 0 354.1666666666667 557.5000000000002zM903.3333333333331 1583.3333333333335A408.3333333333333 408.3333333333333 0 0 1 742.5 1550.8333333333335A416.6666666666667 416.6666666666667 0 0 1 522.4999999999999 1333.3333333333335A416.6666666666667 416.6666666666667 0 0 1 522.4999999999999 1010.8333333333331A62.5 62.5 0 0 0 522.4999999999999 968.3333333333331L445.8333333333333 718.3333333333333L695.8333333333333 795A62.5 62.5 0 0 0 738.3333333333333 795A416.6666666666667 416.6666666666667 0 0 1 1280.8333333333333 1015A416.6666666666667 416.6666666666667 0 0 1 903.3333333333331 1583.3333333333335zM1645.8333333333333 291.6666666666668A69.1666666666667 69.1666666666667 0 0 0 1627.5 291.6666666666668L1284.1666666666665 395.8333333333335A534.9999999999999 534.9999999999999 0 0 0 603.3333333333334 685.8333333333335A60.8333333333333 60.8333333333333 0 0 0 635 769.1666666666667A62.5 62.5 0 0 0 718.3333333333334 737.5A421.6666666666667 421.6666666666667 0 0 1 801.6666666666667 610A416.6666666666667 416.6666666666667 0 0 1 1255.0000000000002 521.666666666667A62.5 62.5 0 0 0 1297.5 521.666666666667L1547.5 445L1470.833333333333 695A62.5 62.5 0 0 0 1470.833333333333 737.5A408.3333333333333 408.3333333333333 0 0 1 1503.3333333333333 898.3333333333333A410.8333333333333 410.8333333333333 0 0 1 1382.5 1190.8333333333333A468.3333333333333 468.3333333333333 0 0 1 1326.6666666666665 1250A62.5 62.5 0 1 0 1396.6666666666667 1353.3333333333335A557.5 557.5 0 0 0 1480 1287.5A540.8333333333333 540.8333333333333 0 0 0 1595 1115.8333333333333A531.6666666666666 531.6666666666666 0 0 0 1637.5 905.8333333333331A552.4999999999999 552.4999999999999 0 0 0 1604.166666666667 718.3333333333333L1708.3333333333335 375A62.5 62.5 0 0 0 1648.3333333333337 291.6666666666668z" />
    <glyph glyph-name="compass"
      unicode="&#xF153;"
      horiz-adv-x="2000" d="M1328.3333333333333 1365L921.6666666666666 1198.3333333333333A219.1666666666667 219.1666666666667 0 0 1 798.3333333333331 1075L631.6666666666665 668.3333333333335A28.3333333333333 28.3333333333333 0 0 1 647.4999999999999 631.6666666666665A30 30 0 0 1 668.3333333333333 631.6666666666665L1074.9999999999998 798.3333333333333A219.1666666666667 219.1666666666667 0 0 1 1198.3333333333333 921.6666666666666L1364.9999999999998 1328.333333333333A28.3333333333333 28.3333333333333 0 0 1 1349.1666666666663 1365A30 30 0 0 1 1328.3333333333333 1365zM1000 916.6666666666669A83.3333333333333 83.3333333333333 0 1 0 1083.3333333333333 1000A83.3333333333333 83.3333333333333 0 0 0 1000 916.6666666666669zM1000 250A749.9999999999999 749.9999999999999 0 1 0 1750 1000A749.9999999999999 749.9999999999999 0 0 0 1000 250zM1000 1625A624.9999999999999 624.9999999999999 0 1 1 1625 1000A624.9999999999999 624.9999999999999 0 0 1 1000 1625z" />
    <glyph glyph-name="copy"
      unicode="&#xF154;"
      horiz-adv-x="2000" d="M1627.5 1333.3333333333335L1166.6666666666665 1794.1666666666667A62.5 62.5 0 0 1 1122.5 1812.5H916.6666666666666A229.1666666666667 229.1666666666667 0 0 1 687.5 1583.3333333333335V1479.1666666666667H583.3333333333333A229.1666666666667 229.1666666666667 0 0 1 354.1666666666667 1250V416.6666666666668A229.1666666666667 229.1666666666667 0 0 1 583.3333333333333 187.5H1166.6666666666665A229.1666666666667 229.1666666666667 0 0 1 1395.8333333333333 416.6666666666668V520.8333333333335H1416.6666666666665A229.1666666666667 229.1666666666667 0 0 1 1645.8333333333333 750V1291.6666666666667A62.5 62.5 0 0 1 1627.5 1333.3333333333335zM1187.5 1599.1666666666667L1432.5 1354.1666666666667H1187.5zM1270.8333333333333 416.6666666666668A104.1666666666667 104.1666666666667 0 0 0 1166.6666666666665 312.5H583.3333333333333A104.1666666666667 104.1666666666667 0 0 0 479.1666666666666 416.6666666666668V1250A104.1666666666667 104.1666666666667 0 0 0 583.3333333333333 1354.1666666666667H687.5V750A229.1666666666667 229.1666666666667 0 0 1 916.6666666666666 520.8333333333335H1270.8333333333333zM1416.6666666666665 645.8333333333335H916.6666666666666A104.1666666666667 104.1666666666667 0 0 0 812.5 750V1583.3333333333335A104.1666666666667 104.1666666666667 0 0 0 916.6666666666666 1687.5H1062.5V1291.6666666666667A63.3333333333333 63.3333333333333 0 0 1 1125 1229.1666666666667H1520.8333333333333V750A104.1666666666667 104.1666666666667 0 0 0 1416.6666666666665 645.8333333333335z" />
    <glyph glyph-name="credit-card"
      unicode="&#xF155;"
      horiz-adv-x="2000" d="M1583.3333333333333 1562.5H416.6666666666667A146.6666666666666 146.6666666666666 0 0 1 270.8333333333333 1416.6666666666667V583.3333333333335A146.6666666666666 146.6666666666666 0 0 1 416.6666666666667 437.5H1583.3333333333333A146.6666666666666 146.6666666666666 0 0 1 1729.1666666666665 583.3333333333335V1416.6666666666667A146.6666666666666 146.6666666666666 0 0 1 1583.3333333333333 1562.5zM416.6666666666667 1437.5H1583.3333333333333A20.8333333333333 20.8333333333333 0 0 0 1604.1666666666665 1416.6666666666667V1229.1666666666667H395.8333333333333V1416.6666666666667A20.8333333333333 20.8333333333333 0 0 0 416.6666666666667 1437.5zM1583.3333333333333 562.5H416.6666666666667A20.8333333333333 20.8333333333333 0 0 0 395.8333333333333 583.3333333333335V1104.1666666666667H1604.1666666666665V583.3333333333335A20.8333333333333 20.8333333333333 0 0 0 1583.3333333333333 562.5zM750 916.6666666666669H583.3333333333333A83.3333333333333 83.3333333333333 0 0 1 583.3333333333333 750H750A83.3333333333333 83.3333333333333 0 0 1 750 916.6666666666669z" />
    </font>
</defs>
</svg>
